<svg class="main-svg" xmlns="http://www.w3.org/2000/svg" xmlns:xlink="http://www.w3.org/1999/xlink" width="960" height="620" style="" viewBox="0 0 960 620"><rect x="0" y="0" width="960" height="620" style="fill: rgb(255, 255, 255); fill-opacity: 1;"/><defs id="defs-006846"><g class="clips"><clipPath id="clip006846xyplot" class="plotclip"><rect width="799" height="526"/></clipPath><clipPath class="axesclip" id="clip006846x"><rect x="68" y="0" width="799" height="620"/></clipPath><clipPath class="axesclip" id="clip006846y"><rect x="0" y="28" width="960" height="526"/></clipPath><clipPath class="axesclip" id="clip006846xy"><rect x="68" y="28" width="799" height="526"/></clipPath></g><g class="gradients"><linearGradient x1="0" y1="1" x2="0" y2="0" gradientUnits="objectBoundingBox" id="g006846-cb57170b"><stop offset="0%" stop-color="rgb(0, 34, 78)" stop-opacity="1"/><stop offset="11.111111%" stop-color="rgb(18, 53, 112)" stop-opacity="1"/><stop offset="22.222222%" stop-color="rgb(59, 73, 108)" stop-opacity="1"/><stop offset="33.333333%" stop-color="rgb(87, 93, 109)" stop-opacity="1"/><stop offset="44.444444%" stop-color="rgb(112, 113, 115)" stop-opacity="1"/><stop offset="55.555556%" stop-color="rgb(138, 134, 120)" stop-opacity="1"/><stop offset="66.666667%" stop-color="rgb(165, 156, 116)" stop-opacity="1"/><stop offset="77.777778%" stop-color="rgb(195, 179, 105)" stop-opacity="1"/><stop offset="88.888889%" stop-color="rgb(225, 204, 85)" stop-opacity="1"/><stop offset="100%" stop-color="rgb(254, 232, 56)" stop-opacity="1"/></linearGradient></g><g class="patterns"/></defs><g class="bglayer"/><g class="layer-below"><g class="imagelayer"/><g class="shapelayer"/></g><g class="cartesianlayer"><g class="subplot xy"><g class="layer-subplot"><g class="shapelayer"/><g class="imagelayer"/></g><g class="minor-gridlayer"><g class="x"/><g class="y"/></g><g class="gridlayer"><g class="x"><path class="xgrid crisp" transform="translate(237.02,0)" d="M0,28v526" style="stroke: rgb(0, 0, 0); stroke-opacity: 0.08; stroke-width: 1px;"/><path class="xgrid crisp" transform="translate(390.67,0)" d="M0,28v526" style="stroke: rgb(0, 0, 0); stroke-opacity: 0.08; stroke-width: 1px;"/><path class="xgrid crisp" transform="translate(544.3299999999999,0)" d="M0,28v526" style="stroke: rgb(0, 0, 0); stroke-opacity: 0.08; stroke-width: 1px;"/><path class="xgrid crisp" transform="translate(697.98,0)" d="M0,28v526" style="stroke: rgb(0, 0, 0); stroke-opacity: 0.08; stroke-width: 1px;"/><path class="xgrid crisp" transform="translate(851.63,0)" d="M0,28v526" style="stroke: rgb(0, 0, 0); stroke-opacity: 0.08; stroke-width: 1px;"/></g><g class="y"><path class="ygrid crisp" transform="translate(0,442.73)" d="M68,0h799" style="stroke: rgb(0, 0, 0); stroke-opacity: 0.08; stroke-width: 1px;"/><path class="ygrid crisp" transform="translate(0,341.58)" d="M68,0h799" style="stroke: rgb(0, 0, 0); stroke-opacity: 0.08; stroke-width: 1px;"/><path class="ygrid crisp" transform="translate(0,240.42)" d="M68,0h799" style="stroke: rgb(0, 0, 0); stroke-opacity: 0.08; stroke-width: 1px;"/><path class="ygrid crisp" transform="translate(0,139.26999999999998)" d="M68,0h799" style="stroke: rgb(0, 0, 0); stroke-opacity: 0.08; stroke-width: 1px;"/><path class="ygrid crisp" transform="translate(0,38.12)" d="M68,0h799" style="stroke: rgb(0, 0, 0); stroke-opacity: 0.08; stroke-width: 1px;"/></g></g><g class="zerolinelayer"><path class="xzl zl crisp" transform="translate(83.37,0)" d="M0,28v526" style="stroke: rgb(235, 240, 248); stroke-opacity: 1; stroke-width: 2px;"/><path class="yzl zl crisp" transform="translate(0,543.88)" d="M68,0h799" style="stroke: rgb(235, 240, 248); stroke-opacity: 1; stroke-width: 2px;"/></g><g class="layer-between"><g class="shapelayer"/><g class="imagelayer"/></g><path class="xlines-below"/><path class="ylines-below"/><g class="overlines-below"/><g class="xaxislayer-below"/><g class="yaxislayer-below"/><g class="overaxes-below"/><g class="overplot"><g class="xy" transform="translate(68,28)" clip-path="url(#clip006846xyplot)"><g class="scatterlayer mlayer"><g class="trace scatter trace57170b" style="stroke-miterlimit: 2; opacity: 1;"><g class="fills"/><g class="errorbars"/><g class="lines"/><g class="points"><path class="point plotly-customdata" transform="translate(111.4,359.94)" d="M5,0A5,5 0 1,1 0,-5A5,5 0 0,1 5,0Z" style="opacity: 0.9; stroke-width: 0.5px; fill: rgb(254, 232, 56); fill-opacity: 1; stroke: rgb(255, 255, 255); stroke-opacity: 1;"/><path class="point plotly-customdata" transform="translate(151.01,385.23)" d="M5,0A5,5 0 1,1 0,-5A5,5 0 0,1 5,0Z" style="opacity: 0.9; stroke-width: 0.5px; fill: rgb(108, 109, 114); fill-opacity: 1; stroke: rgb(255, 255, 255); stroke-opacity: 1;"/><path class="point plotly-customdata" transform="translate(177.42,456.88)" d="M5,0A5,5 0 1,1 0,-5A5,5 0 0,1 5,0Z" style="opacity: 0.9; stroke-width: 0.5px; fill: rgb(77, 86, 109); fill-opacity: 1; stroke: rgb(255, 255, 255); stroke-opacity: 1;"/><path class="point plotly-customdata" transform="translate(377.89,269.32)" d="M5,0A5,5 0 1,1 0,-5A5,5 0 0,1 5,0Z" style="opacity: 0.9; stroke-width: 0.5px; fill: rgb(75, 84, 109); fill-opacity: 1; stroke: rgb(255, 255, 255); stroke-opacity: 1;"/><path class="point plotly-customdata" transform="translate(151.01,298.83)" d="M5,0A5,5 0 1,1 0,-5A5,5 0 0,1 5,0Z" style="opacity: 0.9; stroke-width: 0.5px; fill: rgb(35, 61, 110); fill-opacity: 1; stroke: rgb(255, 255, 255); stroke-opacity: 1;"/><path class="point plotly-customdata" transform="translate(567.56,317.79)" d="M5,0A5,5 0 1,1 0,-5A5,5 0 0,1 5,0Z" style="opacity: 0.9; stroke-width: 0.5px; fill: rgb(31, 59, 111); fill-opacity: 1; stroke: rgb(255, 255, 255); stroke-opacity: 1;"/><path class="point plotly-customdata" transform="translate(151.01,376.8)" d="M5,0A5,5 0 1,1 0,-5A5,5 0 0,1 5,0Z" style="opacity: 0.9; stroke-width: 0.5px; fill: rgb(24, 56, 111); fill-opacity: 1; stroke: rgb(255, 255, 255); stroke-opacity: 1;"/><path class="point plotly-customdata" transform="translate(72.99,442.13)" d="M5,0A5,5 0 1,1 0,-5A5,5 0 0,1 5,0Z" style="opacity: 0.9; stroke-width: 0.5px; fill: rgb(23, 56, 111); fill-opacity: 1; stroke: rgb(255, 255, 255); stroke-opacity: 1;"/><path class="point plotly-customdata" transform="translate(302.27,286.18)" d="M5,0A5,5 0 1,1 0,-5A5,5 0 0,1 5,0Z" style="opacity: 0.9; stroke-width: 0.5px; fill: rgb(23, 55, 112); fill-opacity: 1; stroke: rgb(255, 255, 255); stroke-opacity: 1;"/><path class="point plotly-customdata" transform="translate(495.53,397.87)" d="M5,0A5,5 0 1,1 0,-5A5,5 0 0,1 5,0Z" style="opacity: 0.9; stroke-width: 0.5px; fill: rgb(21, 54, 112); fill-opacity: 1; stroke: rgb(255, 255, 255); stroke-opacity: 1;"/><path class="point plotly-customdata" transform="translate(436.71,408.41)" d="M5,0A5,5 0 1,1 0,-5A5,5 0 0,1 5,0Z" style="opacity: 0.9; stroke-width: 0.5px; fill: rgb(17, 52, 111); fill-opacity: 1; stroke: rgb(255, 255, 255); stroke-opacity: 1;"/><path class="point plotly-customdata" transform="translate(212.23,376.8)" d="M5,0A5,5 0 1,1 0,-5A5,5 0 0,1 5,0Z" style="opacity: 0.9; stroke-width: 0.5px; fill: rgb(16, 51, 109); fill-opacity: 1; stroke: rgb(255, 255, 255); stroke-opacity: 1;"/><path class="point plotly-customdata" transform="translate(491.93,340.97)" d="M5,0A5,5 0 1,1 0,-5A5,5 0 0,1 5,0Z" style="opacity: 0.9; stroke-width: 0.5px; fill: rgb(16, 51, 109); fill-opacity: 1; stroke: rgb(255, 255, 255); stroke-opacity: 1;"/><path class="point plotly-customdata" transform="translate(441.51,404.19)" d="M5,0A5,5 0 1,1 0,-5A5,5 0 0,1 5,0Z" style="opacity: 0.9; stroke-width: 0.5px; fill: rgb(16, 51, 108); fill-opacity: 1; stroke: rgb(255, 255, 255); stroke-opacity: 1;"/><path class="point plotly-customdata" transform="translate(431.91,399.98)" d="M5,0A5,5 0 1,1 0,-5A5,5 0 0,1 5,0Z" style="opacity: 0.9; stroke-width: 0.5px; fill: rgb(16, 50, 107); fill-opacity: 1; stroke: rgb(255, 255, 255); stroke-opacity: 1;"/><path class="point plotly-customdata" transform="translate(467.92,370.48)" d="M5,0A5,5 0 1,1 0,-5A5,5 0 0,1 5,0Z" style="opacity: 0.9; stroke-width: 0.5px; fill: rgb(16, 50, 107); fill-opacity: 1; stroke: rgb(255, 255, 255); stroke-opacity: 1;"/><path class="point plotly-customdata" transform="translate(439.11,355.72)" d="M5,0A5,5 0 1,1 0,-5A5,5 0 0,1 5,0Z" style="opacity: 0.9; stroke-width: 0.5px; fill: rgb(14, 49, 105); fill-opacity: 1; stroke: rgb(255, 255, 255); stroke-opacity: 1;"/><path class="point plotly-customdata" transform="translate(382.69,340.97)" d="M5,0A5,5 0 1,1 0,-5A5,5 0 0,1 5,0Z" style="opacity: 0.9; stroke-width: 0.5px; fill: rgb(14, 49, 104); fill-opacity: 1; stroke: rgb(255, 255, 255); stroke-opacity: 1;"/><path class="point plotly-customdata" transform="translate(223.04,336.76)" d="M5,0A5,5 0 1,1 0,-5A5,5 0 0,1 5,0Z" style="opacity: 0.9; stroke-width: 0.5px; fill: rgb(14, 49, 104); fill-opacity: 1; stroke: rgb(255, 255, 255); stroke-opacity: 1;"/><path class="point plotly-customdata" transform="translate(443.92,355.72)" d="M5,0A5,5 0 1,1 0,-5A5,5 0 0,1 5,0Z" style="opacity: 0.9; stroke-width: 0.5px; fill: rgb(14, 48, 104); fill-opacity: 1; stroke: rgb(255, 255, 255); stroke-opacity: 1;"/><path class="point plotly-customdata" transform="translate(455.92,307.25)" d="M5,0A5,5 0 1,1 0,-5A5,5 0 0,1 5,0Z" style="opacity: 0.9; stroke-width: 0.5px; fill: rgb(13, 48, 103); fill-opacity: 1; stroke: rgb(255, 255, 255); stroke-opacity: 1;"/><path class="point plotly-customdata" transform="translate(142.61,326.22)" d="M5,0A5,5 0 1,1 0,-5A5,5 0 0,1 5,0Z" style="opacity: 0.9; stroke-width: 0.5px; fill: rgb(13, 48, 103); fill-opacity: 1; stroke: rgb(255, 255, 255); stroke-opacity: 1;"/><path class="point plotly-customdata" transform="translate(413.91,368.37)" d="M5,0A5,5 0 1,1 0,-5A5,5 0 0,1 5,0Z" style="opacity: 0.9; stroke-width: 0.5px; fill: rgb(13, 48, 103); fill-opacity: 1; stroke: rgb(255, 255, 255); stroke-opacity: 1;"/><path class="point plotly-customdata" transform="translate(412.7,368.37)" d="M5,0A5,5 0 1,1 0,-5A5,5 0 0,1 5,0Z" style="opacity: 0.9; stroke-width: 0.5px; fill: rgb(13, 48, 102); fill-opacity: 1; stroke: rgb(255, 255, 255); stroke-opacity: 1;"/><path class="point plotly-customdata" transform="translate(287.86,448.45)" d="M5,0A5,5 0 1,1 0,-5A5,5 0 0,1 5,0Z" style="opacity: 0.9; stroke-width: 0.5px; fill: rgb(13, 47, 102); fill-opacity: 1; stroke: rgb(255, 255, 255); stroke-opacity: 1;"/><path class="point plotly-customdata" transform="translate(413.91,334.65)" d="M5,0A5,5 0 1,1 0,-5A5,5 0 0,1 5,0Z" style="opacity: 0.9; stroke-width: 0.5px; fill: rgb(12, 47, 101); fill-opacity: 1; stroke: rgb(255, 255, 255); stroke-opacity: 1;"/><path class="point plotly-customdata" transform="translate(409.1,372.58)" d="M5,0A5,5 0 1,1 0,-5A5,5 0 0,1 5,0Z" style="opacity: 0.9; stroke-width: 0.5px; fill: rgb(12, 47, 101); fill-opacity: 1; stroke: rgb(255, 255, 255); stroke-opacity: 1;"/><path class="point plotly-customdata" transform="translate(416.31,288.29)" d="M5,0A5,5 0 1,1 0,-5A5,5 0 0,1 5,0Z" style="opacity: 0.9; stroke-width: 0.5px; fill: rgb(12, 47, 101); fill-opacity: 1; stroke: rgb(255, 255, 255); stroke-opacity: 1;"/><path class="point plotly-customdata" transform="translate(376.69,307.25)" d="M5,0A5,5 0 1,1 0,-5A5,5 0 0,1 5,0Z" style="opacity: 0.9; stroke-width: 0.5px; fill: rgb(12, 47, 101); fill-opacity: 1; stroke: rgb(255, 255, 255); stroke-opacity: 1;"/><path class="point plotly-customdata" transform="translate(385.09,501.13)" d="M5,0A5,5 0 1,1 0,-5A5,5 0 0,1 5,0Z" style="opacity: 0.9; stroke-width: 0.5px; fill: rgb(12, 47, 101); fill-opacity: 1; stroke: rgb(255, 255, 255); stroke-opacity: 1;"/><path class="point plotly-customdata" transform="translate(393.5,410.52)" d="M5,0A5,5 0 1,1 0,-5A5,5 0 0,1 5,0Z" style="opacity: 0.9; stroke-width: 0.5px; fill: rgb(12, 47, 101); fill-opacity: 1; stroke: rgb(255, 255, 255); stroke-opacity: 1;"/><path class="point plotly-customdata" transform="translate(388.7,389.44)" d="M5,0A5,5 0 1,1 0,-5A5,5 0 0,1 5,0Z" style="opacity: 0.9; stroke-width: 0.5px; fill: rgb(12, 47, 101); fill-opacity: 1; stroke: rgb(255, 255, 255); stroke-opacity: 1;"/><path class="point plotly-customdata" transform="translate(367.09,421.05)" d="M5,0A5,5 0 1,1 0,-5A5,5 0 0,1 5,0Z" style="opacity: 0.9; stroke-width: 0.5px; fill: rgb(12, 47, 101); fill-opacity: 1; stroke: rgb(255, 255, 255); stroke-opacity: 1;"/><path class="point plotly-customdata" transform="translate(375.49,389.44)" d="M5,0A5,5 0 1,1 0,-5A5,5 0 0,1 5,0Z" style="opacity: 0.9; stroke-width: 0.5px; fill: rgb(12, 47, 101); fill-opacity: 1; stroke: rgb(255, 255, 255); stroke-opacity: 1;"/><path class="point plotly-customdata" transform="translate(249.45,404.19)" d="M5,0A5,5 0 1,1 0,-5A5,5 0 0,1 5,0Z" style="opacity: 0.9; stroke-width: 0.5px; fill: rgb(12, 47, 101); fill-opacity: 1; stroke: rgb(255, 255, 255); stroke-opacity: 1;"/><path class="point plotly-customdata" transform="translate(197.83,338.87)" d="M5,0A5,5 0 1,1 0,-5A5,5 0 0,1 5,0Z" style="opacity: 0.9; stroke-width: 0.5px; fill: rgb(12, 47, 101); fill-opacity: 1; stroke: rgb(255, 255, 255); stroke-opacity: 1;"/><path class="point plotly-customdata" transform="translate(383.89,353.62)" d="M5,0A5,5 0 1,1 0,-5A5,5 0 0,1 5,0Z" style="opacity: 0.9; stroke-width: 0.5px; fill: rgb(12, 47, 101); fill-opacity: 1; stroke: rgb(255, 255, 255); stroke-opacity: 1;"/><path class="point plotly-customdata" transform="translate(326.27,326.22)" d="M5,0A5,5 0 1,1 0,-5A5,5 0 0,1 5,0Z" style="opacity: 0.9; stroke-width: 0.5px; fill: rgb(12, 47, 101); fill-opacity: 1; stroke: rgb(255, 255, 255); stroke-opacity: 1;"/><path class="point plotly-customdata" transform="translate(291.46,450.56)" d="M5,0A5,5 0 1,1 0,-5A5,5 0 0,1 5,0Z" style="opacity: 0.9; stroke-width: 0.5px; fill: rgb(12, 47, 101); fill-opacity: 1; stroke: rgb(255, 255, 255); stroke-opacity: 1;"/><path class="point plotly-customdata" transform="translate(137.81,501.13)" d="M5,0A5,5 0 1,1 0,-5A5,5 0 0,1 5,0Z" style="opacity: 0.9; stroke-width: 0.5px; fill: rgb(12, 47, 101); fill-opacity: 1; stroke: rgb(255, 255, 255); stroke-opacity: 1;"/><path class="point plotly-customdata" transform="translate(377.89,319.9)" d="M5,0A5,5 0 1,1 0,-5A5,5 0 0,1 5,0Z" style="opacity: 0.9; stroke-width: 0.5px; fill: rgb(12, 47, 101); fill-opacity: 1; stroke: rgb(255, 255, 255); stroke-opacity: 1;"/><path class="point plotly-customdata" transform="translate(381.49,334.65)" d="M5,0A5,5 0 1,1 0,-5A5,5 0 0,1 5,0Z" style="opacity: 0.9; stroke-width: 0.5px; fill: rgb(12, 47, 101); fill-opacity: 1; stroke: rgb(255, 255, 255); stroke-opacity: 1;"/><path class="point plotly-customdata" transform="translate(320.27,368.37)" d="M5,0A5,5 0 1,1 0,-5A5,5 0 0,1 5,0Z" style="opacity: 0.9; stroke-width: 0.5px; fill: rgb(12, 47, 101); fill-opacity: 1; stroke: rgb(255, 255, 255); stroke-opacity: 1;"/><path class="point plotly-customdata" transform="translate(305.87,355.72)" d="M5,0A5,5 0 1,1 0,-5A5,5 0 0,1 5,0Z" style="opacity: 0.9; stroke-width: 0.5px; fill: rgb(12, 47, 101); fill-opacity: 1; stroke: rgb(255, 255, 255); stroke-opacity: 1;"/><path class="point plotly-customdata" transform="translate(307.07,376.8)" d="M5,0A5,5 0 1,1 0,-5A5,5 0 0,1 5,0Z" style="opacity: 0.9; stroke-width: 0.5px; fill: rgb(12, 47, 101); fill-opacity: 1; stroke: rgb(255, 255, 255); stroke-opacity: 1;"/><path class="point plotly-customdata" transform="translate(355.08,399.98)" d="M5,0A5,5 0 1,1 0,-5A5,5 0 0,1 5,0Z" style="opacity: 0.9; stroke-width: 0.5px; fill: rgb(12, 47, 101); fill-opacity: 1; stroke: rgb(255, 255, 255); stroke-opacity: 1;"/><path class="point plotly-customdata" transform="translate(346.68,355.72)" d="M5,0A5,5 0 1,1 0,-5A5,5 0 0,1 5,0Z" style="opacity: 0.9; stroke-width: 0.5px; fill: rgb(12, 47, 101); fill-opacity: 1; stroke: rgb(255, 255, 255); stroke-opacity: 1;"/><path class="point plotly-customdata" transform="translate(242.24,347.29)" d="M5,0A5,5 0 1,1 0,-5A5,5 0 0,1 5,0Z" style="opacity: 0.9; stroke-width: 0.5px; fill: rgb(12, 47, 101); fill-opacity: 1; stroke: rgb(255, 255, 255); stroke-opacity: 1;"/><path class="point plotly-customdata" transform="translate(188.23,467.42)" d="M5,0A5,5 0 1,1 0,-5A5,5 0 0,1 5,0Z" style="opacity: 0.9; stroke-width: 0.5px; fill: rgb(12, 47, 101); fill-opacity: 1; stroke: rgb(255, 255, 255); stroke-opacity: 1;"/><path class="point plotly-customdata" transform="translate(130.61,244.03)" d="M5,0A5,5 0 1,1 0,-5A5,5 0 0,1 5,0Z" style="opacity: 0.9; stroke-width: 0.5px; fill: rgb(12, 47, 101); fill-opacity: 1; stroke: rgb(255, 255, 255); stroke-opacity: 1;"/><path class="point plotly-customdata" transform="translate(178.62,227.17)" d="M5,0A5,5 0 1,1 0,-5A5,5 0 0,1 5,0Z" style="opacity: 0.9; stroke-width: 0.5px; fill: rgb(12, 47, 101); fill-opacity: 1; stroke: rgb(255, 255, 255); stroke-opacity: 1;"/><path class="point plotly-customdata" transform="translate(87.39,338.87)" d="M5,0A5,5 0 1,1 0,-5A5,5 0 0,1 5,0Z" style="opacity: 0.9; stroke-width: 0.5px; fill: rgb(12, 47, 101); fill-opacity: 1; stroke: rgb(255, 255, 255); stroke-opacity: 1;"/><path class="point plotly-customdata" transform="translate(15.37,313.58)" d="M5,0A5,5 0 1,1 0,-5A5,5 0 0,1 5,0Z" style="opacity: 0.9; stroke-width: 0.5px; fill: rgb(12, 47, 101); fill-opacity: 1; stroke: rgb(255, 255, 255); stroke-opacity: 1;"/><path class="point plotly-customdata" transform="translate(15.37,273.54)" d="M5,0A5,5 0 1,1 0,-5A5,5 0 0,1 5,0Z" style="opacity: 0.9; stroke-width: 0.5px; fill: rgb(12, 47, 101); fill-opacity: 1; stroke: rgb(255, 255, 255); stroke-opacity: 1;"/><path class="point plotly-customdata" transform="translate(20.17,515.88)" d="M5,0A5,5 0 1,1 0,-5A5,5 0 0,1 5,0Z" style="opacity: 0.9; stroke-width: 0.5px; fill: rgb(12, 47, 101); fill-opacity: 1; stroke: rgb(255, 255, 255); stroke-opacity: 1;"/><path class="point plotly-customdata" transform="translate(15.37,505.35)" d="M5,0A5,5 0 1,1 0,-5A5,5 0 0,1 5,0Z" style="opacity: 0.9; stroke-width: 0.5px; fill: rgb(0, 34, 78); fill-opacity: 1; stroke: rgb(255, 255, 255); stroke-opacity: 1;"/><path class="point plotly-customdata" transform="translate(15.37,399.98)" d="M5,0A5,5 0 1,1 0,-5A5,5 0 0,1 5,0Z" style="opacity: 0.9; stroke-width: 0.5px; fill: rgb(0, 34, 78); fill-opacity: 1; stroke: rgb(255, 255, 255); stroke-opacity: 1;"/><path class="point plotly-customdata" transform="translate(15.37,515.88)" d="M5,0A5,5 0 1,1 0,-5A5,5 0 0,1 5,0Z" style="opacity: 0.9; stroke-width: 0.5px; fill: rgb(0, 34, 78); fill-opacity: 1; stroke: rgb(255, 255, 255); stroke-opacity: 1;"/><path class="point plotly-customdata" transform="translate(15.37,378.91)" d="M5,0A5,5 0 1,1 0,-5A5,5 0 0,1 5,0Z" style="opacity: 0.9; stroke-width: 0.5px; fill: rgb(0, 34, 78); fill-opacity: 1; stroke: rgb(255, 255, 255); stroke-opacity: 1;"/><path class="point plotly-customdata" transform="translate(15.37,505.35)" d="M5,0A5,5 0 1,1 0,-5A5,5 0 0,1 5,0Z" style="opacity: 0.9; stroke-width: 0.5px; fill: rgb(0, 34, 78); fill-opacity: 1; stroke: rgb(255, 255, 255); stroke-opacity: 1;"/></g><g class="text"><g class="textpoint" transform="translate(0,2.25)"><text x="111.4" y="359.94" text-anchor="middle" style="font-family: 'Open Sans', verdana, arial, sans-serif; font-size: 9px; fill: rgb(255, 255, 255); fill-opacity: 1; white-space: pre;">1</text></g><g class="textpoint" transform="translate(0,2.25)"><text x="151.01" y="385.23" text-anchor="middle" style="font-family: 'Open Sans', verdana, arial, sans-serif; font-size: 9px; fill: rgb(255, 255, 255); fill-opacity: 1; white-space: pre;">2</text></g><g class="textpoint" transform="translate(0,2.25)"><text x="177.42" y="456.88" text-anchor="middle" style="font-family: 'Open Sans', verdana, arial, sans-serif; font-size: 9px; fill: rgb(255, 255, 255); fill-opacity: 1; white-space: pre;">3</text></g><g class="textpoint" transform="translate(0,2.25)"><text x="377.89" y="269.32" text-anchor="middle" style="font-family: 'Open Sans', verdana, arial, sans-serif; font-size: 9px; fill: rgb(255, 255, 255); fill-opacity: 1; white-space: pre;">4</text></g><g class="textpoint" transform="translate(0,2.25)"><text x="151.01" y="298.83" text-anchor="middle" style="font-family: 'Open Sans', verdana, arial, sans-serif; font-size: 9px; fill: rgb(255, 255, 255); fill-opacity: 1; white-space: pre;">5</text></g><g class="textpoint" transform="translate(0,2.25)"><text x="567.56" y="317.79" text-anchor="middle" style="font-family: 'Open Sans', verdana, arial, sans-serif; font-size: 9px; fill: rgb(255, 255, 255); fill-opacity: 1; white-space: pre;">6</text></g><g class="textpoint" transform="translate(0,2.25)"><text x="151.01" y="376.8" text-anchor="middle" style="font-family: 'Open Sans', verdana, arial, sans-serif; font-size: 9px; fill: rgb(255, 255, 255); fill-opacity: 1; white-space: pre;">7</text></g><g class="textpoint" transform="translate(0,2.25)"><text x="72.99" y="442.13" text-anchor="middle" style="font-family: 'Open Sans', verdana, arial, sans-serif; font-size: 9px; fill: rgb(255, 255, 255); fill-opacity: 1; white-space: pre;">8</text></g><g class="textpoint" transform="translate(0,2.25)"><text x="302.27" y="286.18" text-anchor="middle" style="font-family: 'Open Sans', verdana, arial, sans-serif; font-size: 9px; fill: rgb(255, 255, 255); fill-opacity: 1; white-space: pre;">9</text></g><g class="textpoint" transform="translate(0,2.25)"><text x="495.53" y="397.87" text-anchor="middle" style="font-family: 'Open Sans', verdana, arial, sans-serif; font-size: 9px; fill: rgb(255, 255, 255); fill-opacity: 1; white-space: pre;">10</text></g><g class="textpoint"/><g class="textpoint"/><g class="textpoint"/><g class="textpoint"/><g class="textpoint"/><g class="textpoint"/><g class="textpoint"/><g class="textpoint"/><g class="textpoint"/><g class="textpoint"/><g class="textpoint"/><g class="textpoint"/><g class="textpoint"/><g class="textpoint"/><g class="textpoint"/><g class="textpoint"/><g class="textpoint"/><g class="textpoint"/><g class="textpoint"/><g class="textpoint"/><g class="textpoint"/><g class="textpoint"/><g class="textpoint"/><g class="textpoint"/><g class="textpoint"/><g class="textpoint"/><g class="textpoint"/><g class="textpoint"/><g class="textpoint"/><g class="textpoint"/><g class="textpoint"/><g class="textpoint"/><g class="textpoint"/><g class="textpoint"/><g class="textpoint"/><g class="textpoint"/><g class="textpoint"/><g class="textpoint"/><g class="textpoint"/><g class="textpoint"/><g class="textpoint"/><g class="textpoint"/><g class="textpoint"/><g class="textpoint"/><g class="textpoint"/><g class="textpoint"/><g class="textpoint"/><g class="textpoint"/><g class="textpoint"/><g class="textpoint"/></g></g></g></g></g><g class="zerolinelayer-above"/><path class="xlines-above crisp" d="M0,0" style="fill: none;"/><path class="ylines-above crisp" d="M0,0" style="fill: none;"/><g class="overlines-above"/><g class="xaxislayer-above"><g class="xtick"><text text-anchor="middle" x="0" y="567" transform="translate(83.37,0)" style="font-family: 'Open Sans', verdana, arial, sans-serif; font-size: 12px; fill: rgb(42, 63, 95); fill-opacity: 1; white-space: pre;">0</text></g><g class="xtick"><text text-anchor="middle" x="0" y="567" style="font-family: 'Open Sans', verdana, arial, sans-serif; font-size: 12px; fill: rgb(42, 63, 95); fill-opacity: 1; white-space: pre;" transform="translate(237.02,0)">0.2</text></g><g class="xtick"><text text-anchor="middle" x="0" y="567" style="font-family: 'Open Sans', verdana, arial, sans-serif; font-size: 12px; fill: rgb(42, 63, 95); fill-opacity: 1; white-space: pre;" transform="translate(390.67,0)">0.4</text></g><g class="xtick"><text text-anchor="middle" x="0" y="567" style="font-family: 'Open Sans', verdana, arial, sans-serif; font-size: 12px; fill: rgb(42, 63, 95); fill-opacity: 1; white-space: pre;" transform="translate(544.3299999999999,0)">0.6</text></g><g class="xtick"><text text-anchor="middle" x="0" y="567" style="font-family: 'Open Sans', verdana, arial, sans-serif; font-size: 12px; fill: rgb(42, 63, 95); fill-opacity: 1; white-space: pre;" transform="translate(697.98,0)">0.8</text></g><g class="xtick"><text text-anchor="middle" x="0" y="567" style="font-family: 'Open Sans', verdana, arial, sans-serif; font-size: 12px; fill: rgb(42, 63, 95); fill-opacity: 1; white-space: pre;" transform="translate(851.63,0)">1</text></g></g><g class="yaxislayer-above"><g class="ytick"><text text-anchor="end" x="67" y="4.199999999999999" transform="translate(0,543.88)" style="font-family: 'Open Sans', verdana, arial, sans-serif; font-size: 12px; fill: rgb(42, 63, 95); fill-opacity: 1; white-space: pre;">0</text></g><g class="ytick"><text text-anchor="end" x="67" y="4.199999999999999" style="font-family: 'Open Sans', verdana, arial, sans-serif; font-size: 12px; fill: rgb(42, 63, 95); fill-opacity: 1; white-space: pre;" transform="translate(0,442.73)">0.2</text></g><g class="ytick"><text text-anchor="end" x="67" y="4.199999999999999" style="font-family: 'Open Sans', verdana, arial, sans-serif; font-size: 12px; fill: rgb(42, 63, 95); fill-opacity: 1; white-space: pre;" transform="translate(0,341.58)">0.4</text></g><g class="ytick"><text text-anchor="end" x="67" y="4.199999999999999" style="font-family: 'Open Sans', verdana, arial, sans-serif; font-size: 12px; fill: rgb(42, 63, 95); fill-opacity: 1; white-space: pre;" transform="translate(0,240.42)">0.6</text></g><g class="ytick"><text text-anchor="end" x="67" y="4.199999999999999" style="font-family: 'Open Sans', verdana, arial, sans-serif; font-size: 12px; fill: rgb(42, 63, 95); fill-opacity: 1; white-space: pre;" transform="translate(0,139.26999999999998)">0.8</text></g><g class="ytick"><text text-anchor="end" x="67" y="4.199999999999999" style="font-family: 'Open Sans', verdana, arial, sans-serif; font-size: 12px; fill: rgb(42, 63, 95); fill-opacity: 1; white-space: pre;" transform="translate(0,38.12)">1</text></g></g><g class="overaxes-above"/></g></g><g class="polarlayer"/><g class="smithlayer"/><g class="ternarylayer"/><g class="geolayer"/><g class="funnelarealayer"/><g class="pielayer"/><g class="iciclelayer"/><g class="treemaplayer"/><g class="sunburstlayer"/><g class="glimages"/><defs id="topdefs-006846"><g class="clips"/></defs><g class="layer-above"><g class="imagelayer"/><g class="shapelayer"/></g><g class="infolayer"><g class="cb57170b colorbar" transform="translate(68,28)"><rect class="cbbg" x="814.5" y="0" width="64.861328125" height="527" style="fill: rgb(0, 0, 0); fill-opacity: 0; stroke: rgb(68, 68, 68); stroke-opacity: 1; stroke-width: 0;"/><g class="cbfills" transform="translate(0,34)"><rect class="cbfill gradient_filled" style="fill: url('#g006846-cb57170b');" x="825" y="0" width="30" height="482"/></g><g class="cblines" transform="translate(0,34)"/><g class="cbaxis crisp" transform="translate(0,-28)"><g class="ycb57170btick"><text text-anchor="start" x="858.4" y="4.199999999999999" transform="translate(0,544)" style="font-family: 'Open Sans', verdana, arial, sans-serif; font-size: 12px; fill: rgb(42, 63, 95); fill-opacity: 1; white-space: pre;">0</text></g><g class="ycb57170btick"><text text-anchor="start" x="858.4" y="4.199999999999999" style="font-family: 'Open Sans', verdana, arial, sans-serif; font-size: 12px; fill: rgb(42, 63, 95); fill-opacity: 1; white-space: pre;" transform="translate(0,472.65)">2</text></g><g class="ycb57170btick"><text text-anchor="start" x="858.4" y="4.199999999999999" style="font-family: 'Open Sans', verdana, arial, sans-serif; font-size: 12px; fill: rgb(42, 63, 95); fill-opacity: 1; white-space: pre;" transform="translate(0,401.29)">4</text></g><g class="ycb57170btick"><text text-anchor="start" x="858.4" y="4.199999999999999" style="font-family: 'Open Sans', verdana, arial, sans-serif; font-size: 12px; fill: rgb(42, 63, 95); fill-opacity: 1; white-space: pre;" transform="translate(0,329.94)">6</text></g><g class="ycb57170btick"><text text-anchor="start" x="858.4" y="4.199999999999999" style="font-family: 'Open Sans', verdana, arial, sans-serif; font-size: 12px; fill: rgb(42, 63, 95); fill-opacity: 1; white-space: pre;" transform="translate(0,258.58000000000004)">8</text></g><g class="ycb57170btick"><text text-anchor="start" x="858.4" y="4.199999999999999" style="font-family: 'Open Sans', verdana, arial, sans-serif; font-size: 12px; fill: rgb(42, 63, 95); fill-opacity: 1; white-space: pre;" transform="translate(0,187.23000000000002)">10</text></g><g class="ycb57170btick"><text text-anchor="start" x="858.4" y="4.199999999999999" style="font-family: 'Open Sans', verdana, arial, sans-serif; font-size: 12px; fill: rgb(42, 63, 95); fill-opacity: 1; white-space: pre;" transform="translate(0,115.87)">12</text></g></g><g class="cbtitleunshift" transform="translate(-68,-28)"><g class="cbtitle" transform="translate(-0.5,-0.5)"><text class="ycb57170btitle" x="892.98" y="51.5" text-anchor="start" style="opacity: 1; font-family: 'Open Sans', verdana, arial, sans-serif; font-size: 14px; fill: rgb(42, 63, 95); fill-opacity: 1; white-space: pre;">score t</text></g></g><rect class="cboutline" x="825" y="34" width="30" height="482" style="stroke: rgb(68, 68, 68); stroke-opacity: 1; fill: none; stroke-width: 1;"/></g><g class="g-gtitle"/><g class="g-xtitle"><text class="xtitle" x="467.5" y="595.3" text-anchor="middle" style="opacity: 1; font-family: 'Open Sans', verdana, arial, sans-serif; font-size: 14px; fill: rgb(42, 63, 95); fill-opacity: 1; white-space: pre;">on-axis movement, higher is better</text></g><g class="g-ytitle"><text class="ytitle" transform="rotate(-90,30.725,291)" x="30.725" y="291" text-anchor="middle" style="opacity: 1; font-family: 'Open Sans', verdana, arial, sans-serif; font-size: 14px; fill: rgb(42, 63, 95); fill-opacity: 1; white-space: pre;">off-axis confounding, lower is better</text></g><g class="annotation" data-index="0" style="opacity: 1;"><g class="annotation-text-g" transform="rotate(0,718.5,612.88)"><g class="cursor-pointer" transform="translate(570,603)"><rect class="bg" x="0.5" y="0.5" width="296" height="18" style="stroke-width: 1px; stroke: rgb(0, 0, 0); stroke-opacity: 0; fill: rgb(0, 0, 0); fill-opacity: 0;"/><text class="annotation-text" text-anchor="middle" x="148.4609375" y="14" style="font-family: 'Open Sans', verdana, arial, sans-serif; font-size: 11px; fill: rgb(0, 0, 0); fill-opacity: 0.62; white-space: pre;">normal pilot scenarios; one point per measured template</text></g></g></g></g></svg>