<?xml version="1.0" encoding="utf-8" standalone="no"?>
<!DOCTYPE svg PUBLIC "-//W3C//DTD SVG 1.1//EN"
  "http://www.w3.org/Graphics/SVG/1.1/DTD/svg11.dtd">
<svg xmlns:xlink="http://www.w3.org/1999/xlink" width="532.8pt" height="360pt" viewBox="0 0 532.8 360" xmlns="http://www.w3.org/2000/svg" version="1.1">
 <metadata>
  <rdf:RDF xmlns:dc="http://purl.org/dc/elements/1.1/" xmlns:cc="http://creativecommons.org/ns#" xmlns:rdf="http://www.w3.org/1999/02/22-rdf-syntax-ns#">
   <cc:Work>
    <dc:type rdf:resource="http://purl.org/dc/dcmitype/StillImage"/>
    <dc:date>2026-06-25T12:44:00.746913</dc:date>
    <dc:format>image/svg+xml</dc:format>
    <dc:creator>
     <cc:Agent>
      <dc:title>Matplotlib v3.10.9, https://matplotlib.org/</dc:title>
     </cc:Agent>
    </dc:creator>
   </cc:Work>
  </rdf:RDF>
 </metadata>
 <defs>
  <style type="text/css">*{stroke-linejoin: round; stroke-linecap: butt}</style>
 </defs>
 <g id="figure_1">
  <g id="patch_1">
   <path d="M 0 360 
L 532.8 360 
L 532.8 0 
L 0 0 
z
" style="fill: #ffffff"/>
  </g>
  <g id="axes_1">
   <g id="patch_2">
    <path d="M 43.3 321.9 
L 522 321.9 
L 522 10.8 
L 43.3 10.8 
z
" style="fill: #ffffff"/>
   </g>
   <g id="matplotlib.axis_1">
    <g id="xtick_1">
     <g id="line2d_1">
      <path d="M 52.505769 321.9 
L 52.505769 10.8 
" clip-path="url(#pfe8687c3b5)" style="fill: none; stroke: #ebebeb; stroke-width: 0.45; stroke-linecap: square"/>
     </g>
     <g id="line2d_2">
      <defs>
       <path id="mbb50c23c74" d="M 0 0 
L 0 3 
" style="stroke: #404040; stroke-width: 0.7"/>
      </defs>
      <g>
       <use xlink:href="#mbb50c23c74" x="52.505769" y="321.9" style="fill: #404040; stroke: #404040; stroke-width: 0.7"/>
      </g>
     </g>
     <g id="text_1">
      <!-- 0.0 -->
      <g transform="translate(46.144519 334.47875) scale(0.08 -0.08)">
       <defs>
        <path id="DejaVuSans-30" d="M 2034 4250 
Q 1547 4250 1301 3770 
Q 1056 3291 1056 2328 
Q 1056 1369 1301 889 
Q 1547 409 2034 409 
Q 2525 409 2770 889 
Q 3016 1369 3016 2328 
Q 3016 3291 2770 3770 
Q 2525 4250 2034 4250 
z
M 2034 4750 
Q 2819 4750 3233 4129 
Q 3647 3509 3647 2328 
Q 3647 1150 3233 529 
Q 2819 -91 2034 -91 
Q 1250 -91 836 529 
Q 422 1150 422 2328 
Q 422 3509 836 4129 
Q 1250 4750 2034 4750 
z
" transform="scale(0.015625)"/>
        <path id="DejaVuSans-2e" d="M 684 794 
L 1344 794 
L 1344 0 
L 684 0 
L 684 794 
z
" transform="scale(0.015625)"/>
       </defs>
       <use xlink:href="#DejaVuSans-30"/>
       <use xlink:href="#DejaVuSans-2e" transform="translate(63.623047 0)"/>
       <use xlink:href="#DejaVuSans-30" transform="translate(95.410156 0)"/>
      </g>
     </g>
    </g>
    <g id="xtick_2">
     <g id="line2d_3">
      <path d="M 144.563462 321.9 
L 144.563462 10.8 
" clip-path="url(#pfe8687c3b5)" style="fill: none; stroke: #ebebeb; stroke-width: 0.45; stroke-linecap: square"/>
     </g>
     <g id="line2d_4">
      <g>
       <use xlink:href="#mbb50c23c74" x="144.563462" y="321.9" style="fill: #404040; stroke: #404040; stroke-width: 0.7"/>
      </g>
     </g>
     <g id="text_2">
      <!-- 0.2 -->
      <g transform="translate(138.202212 334.47875) scale(0.08 -0.08)">
       <defs>
        <path id="DejaVuSans-32" d="M 1228 531 
L 3431 531 
L 3431 0 
L 469 0 
L 469 531 
Q 828 903 1448 1529 
Q 2069 2156 2228 2338 
Q 2531 2678 2651 2914 
Q 2772 3150 2772 3378 
Q 2772 3750 2511 3984 
Q 2250 4219 1831 4219 
Q 1534 4219 1204 4116 
Q 875 4013 500 3803 
L 500 4441 
Q 881 4594 1212 4672 
Q 1544 4750 1819 4750 
Q 2544 4750 2975 4387 
Q 3406 4025 3406 3419 
Q 3406 3131 3298 2873 
Q 3191 2616 2906 2266 
Q 2828 2175 2409 1742 
Q 1991 1309 1228 531 
z
" transform="scale(0.015625)"/>
       </defs>
       <use xlink:href="#DejaVuSans-30"/>
       <use xlink:href="#DejaVuSans-2e" transform="translate(63.623047 0)"/>
       <use xlink:href="#DejaVuSans-32" transform="translate(95.410156 0)"/>
      </g>
     </g>
    </g>
    <g id="xtick_3">
     <g id="line2d_5">
      <path d="M 236.621154 321.9 
L 236.621154 10.8 
" clip-path="url(#pfe8687c3b5)" style="fill: none; stroke: #ebebeb; stroke-width: 0.45; stroke-linecap: square"/>
     </g>
     <g id="line2d_6">
      <g>
       <use xlink:href="#mbb50c23c74" x="236.621154" y="321.9" style="fill: #404040; stroke: #404040; stroke-width: 0.7"/>
      </g>
     </g>
     <g id="text_3">
      <!-- 0.4 -->
      <g transform="translate(230.259904 334.47875) scale(0.08 -0.08)">
       <defs>
        <path id="DejaVuSans-34" d="M 2419 4116 
L 825 1625 
L 2419 1625 
L 2419 4116 
z
M 2253 4666 
L 3047 4666 
L 3047 1625 
L 3713 1625 
L 3713 1100 
L 3047 1100 
L 3047 0 
L 2419 0 
L 2419 1100 
L 313 1100 
L 313 1709 
L 2253 4666 
z
" transform="scale(0.015625)"/>
       </defs>
       <use xlink:href="#DejaVuSans-30"/>
       <use xlink:href="#DejaVuSans-2e" transform="translate(63.623047 0)"/>
       <use xlink:href="#DejaVuSans-34" transform="translate(95.410156 0)"/>
      </g>
     </g>
    </g>
    <g id="xtick_4">
     <g id="line2d_7">
      <path d="M 328.678846 321.9 
L 328.678846 10.8 
" clip-path="url(#pfe8687c3b5)" style="fill: none; stroke: #ebebeb; stroke-width: 0.45; stroke-linecap: square"/>
     </g>
     <g id="line2d_8">
      <g>
       <use xlink:href="#mbb50c23c74" x="328.678846" y="321.9" style="fill: #404040; stroke: #404040; stroke-width: 0.7"/>
      </g>
     </g>
     <g id="text_4">
      <!-- 0.6 -->
      <g transform="translate(322.317596 334.47875) scale(0.08 -0.08)">
       <defs>
        <path id="DejaVuSans-36" d="M 2113 2584 
Q 1688 2584 1439 2293 
Q 1191 2003 1191 1497 
Q 1191 994 1439 701 
Q 1688 409 2113 409 
Q 2538 409 2786 701 
Q 3034 994 3034 1497 
Q 3034 2003 2786 2293 
Q 2538 2584 2113 2584 
z
M 3366 4563 
L 3366 3988 
Q 3128 4100 2886 4159 
Q 2644 4219 2406 4219 
Q 1781 4219 1451 3797 
Q 1122 3375 1075 2522 
Q 1259 2794 1537 2939 
Q 1816 3084 2150 3084 
Q 2853 3084 3261 2657 
Q 3669 2231 3669 1497 
Q 3669 778 3244 343 
Q 2819 -91 2113 -91 
Q 1303 -91 875 529 
Q 447 1150 447 2328 
Q 447 3434 972 4092 
Q 1497 4750 2381 4750 
Q 2619 4750 2861 4703 
Q 3103 4656 3366 4563 
z
" transform="scale(0.015625)"/>
       </defs>
       <use xlink:href="#DejaVuSans-30"/>
       <use xlink:href="#DejaVuSans-2e" transform="translate(63.623047 0)"/>
       <use xlink:href="#DejaVuSans-36" transform="translate(95.410156 0)"/>
      </g>
     </g>
    </g>
    <g id="xtick_5">
     <g id="line2d_9">
      <path d="M 420.736538 321.9 
L 420.736538 10.8 
" clip-path="url(#pfe8687c3b5)" style="fill: none; stroke: #ebebeb; stroke-width: 0.45; stroke-linecap: square"/>
     </g>
     <g id="line2d_10">
      <g>
       <use xlink:href="#mbb50c23c74" x="420.736538" y="321.9" style="fill: #404040; stroke: #404040; stroke-width: 0.7"/>
      </g>
     </g>
     <g id="text_5">
      <!-- 0.8 -->
      <g transform="translate(414.375288 334.47875) scale(0.08 -0.08)">
       <defs>
        <path id="DejaVuSans-38" d="M 2034 2216 
Q 1584 2216 1326 1975 
Q 1069 1734 1069 1313 
Q 1069 891 1326 650 
Q 1584 409 2034 409 
Q 2484 409 2743 651 
Q 3003 894 3003 1313 
Q 3003 1734 2745 1975 
Q 2488 2216 2034 2216 
z
M 1403 2484 
Q 997 2584 770 2862 
Q 544 3141 544 3541 
Q 544 4100 942 4425 
Q 1341 4750 2034 4750 
Q 2731 4750 3128 4425 
Q 3525 4100 3525 3541 
Q 3525 3141 3298 2862 
Q 3072 2584 2669 2484 
Q 3125 2378 3379 2068 
Q 3634 1759 3634 1313 
Q 3634 634 3220 271 
Q 2806 -91 2034 -91 
Q 1263 -91 848 271 
Q 434 634 434 1313 
Q 434 1759 690 2068 
Q 947 2378 1403 2484 
z
M 1172 3481 
Q 1172 3119 1398 2916 
Q 1625 2713 2034 2713 
Q 2441 2713 2670 2916 
Q 2900 3119 2900 3481 
Q 2900 3844 2670 4047 
Q 2441 4250 2034 4250 
Q 1625 4250 1398 4047 
Q 1172 3844 1172 3481 
z
" transform="scale(0.015625)"/>
       </defs>
       <use xlink:href="#DejaVuSans-30"/>
       <use xlink:href="#DejaVuSans-2e" transform="translate(63.623047 0)"/>
       <use xlink:href="#DejaVuSans-38" transform="translate(95.410156 0)"/>
      </g>
     </g>
    </g>
    <g id="xtick_6">
     <g id="line2d_11">
      <path d="M 512.794231 321.9 
L 512.794231 10.8 
" clip-path="url(#pfe8687c3b5)" style="fill: none; stroke: #ebebeb; stroke-width: 0.45; stroke-linecap: square"/>
     </g>
     <g id="line2d_12">
      <g>
       <use xlink:href="#mbb50c23c74" x="512.794231" y="321.9" style="fill: #404040; stroke: #404040; stroke-width: 0.7"/>
      </g>
     </g>
     <g id="text_6">
      <!-- 1.0 -->
      <g transform="translate(506.432981 334.47875) scale(0.08 -0.08)">
       <defs>
        <path id="DejaVuSans-31" d="M 794 531 
L 1825 531 
L 1825 4091 
L 703 3866 
L 703 4441 
L 1819 4666 
L 2450 4666 
L 2450 531 
L 3481 531 
L 3481 0 
L 794 0 
L 794 531 
z
" transform="scale(0.015625)"/>
       </defs>
       <use xlink:href="#DejaVuSans-31"/>
       <use xlink:href="#DejaVuSans-2e" transform="translate(63.623047 0)"/>
       <use xlink:href="#DejaVuSans-30" transform="translate(95.410156 0)"/>
      </g>
     </g>
    </g>
    <g id="text_7">
     <!-- template on-axis movement, higher is better -->
     <g transform="translate(181.376797 346.981094) scale(0.09 -0.09)">
      <defs>
       <path id="DejaVuSans-74" d="M 1172 4494 
L 1172 3500 
L 2356 3500 
L 2356 3053 
L 1172 3053 
L 1172 1153 
Q 1172 725 1289 603 
Q 1406 481 1766 481 
L 2356 481 
L 2356 0 
L 1766 0 
Q 1100 0 847 248 
Q 594 497 594 1153 
L 594 3053 
L 172 3053 
L 172 3500 
L 594 3500 
L 594 4494 
L 1172 4494 
z
" transform="scale(0.015625)"/>
       <path id="DejaVuSans-65" d="M 3597 1894 
L 3597 1613 
L 953 1613 
Q 991 1019 1311 708 
Q 1631 397 2203 397 
Q 2534 397 2845 478 
Q 3156 559 3463 722 
L 3463 178 
Q 3153 47 2828 -22 
Q 2503 -91 2169 -91 
Q 1331 -91 842 396 
Q 353 884 353 1716 
Q 353 2575 817 3079 
Q 1281 3584 2069 3584 
Q 2775 3584 3186 3129 
Q 3597 2675 3597 1894 
z
M 3022 2063 
Q 3016 2534 2758 2815 
Q 2500 3097 2075 3097 
Q 1594 3097 1305 2825 
Q 1016 2553 972 2059 
L 3022 2063 
z
" transform="scale(0.015625)"/>
       <path id="DejaVuSans-6d" d="M 3328 2828 
Q 3544 3216 3844 3400 
Q 4144 3584 4550 3584 
Q 5097 3584 5394 3201 
Q 5691 2819 5691 2113 
L 5691 0 
L 5113 0 
L 5113 2094 
Q 5113 2597 4934 2840 
Q 4756 3084 4391 3084 
Q 3944 3084 3684 2787 
Q 3425 2491 3425 1978 
L 3425 0 
L 2847 0 
L 2847 2094 
Q 2847 2600 2669 2842 
Q 2491 3084 2119 3084 
Q 1678 3084 1418 2786 
Q 1159 2488 1159 1978 
L 1159 0 
L 581 0 
L 581 3500 
L 1159 3500 
L 1159 2956 
Q 1356 3278 1631 3431 
Q 1906 3584 2284 3584 
Q 2666 3584 2933 3390 
Q 3200 3197 3328 2828 
z
" transform="scale(0.015625)"/>
       <path id="DejaVuSans-70" d="M 1159 525 
L 1159 -1331 
L 581 -1331 
L 581 3500 
L 1159 3500 
L 1159 2969 
Q 1341 3281 1617 3432 
Q 1894 3584 2278 3584 
Q 2916 3584 3314 3078 
Q 3713 2572 3713 1747 
Q 3713 922 3314 415 
Q 2916 -91 2278 -91 
Q 1894 -91 1617 61 
Q 1341 213 1159 525 
z
M 3116 1747 
Q 3116 2381 2855 2742 
Q 2594 3103 2138 3103 
Q 1681 3103 1420 2742 
Q 1159 2381 1159 1747 
Q 1159 1113 1420 752 
Q 1681 391 2138 391 
Q 2594 391 2855 752 
Q 3116 1113 3116 1747 
z
" transform="scale(0.015625)"/>
       <path id="DejaVuSans-6c" d="M 603 4863 
L 1178 4863 
L 1178 0 
L 603 0 
L 603 4863 
z
" transform="scale(0.015625)"/>
       <path id="DejaVuSans-61" d="M 2194 1759 
Q 1497 1759 1228 1600 
Q 959 1441 959 1056 
Q 959 750 1161 570 
Q 1363 391 1709 391 
Q 2188 391 2477 730 
Q 2766 1069 2766 1631 
L 2766 1759 
L 2194 1759 
z
M 3341 1997 
L 3341 0 
L 2766 0 
L 2766 531 
Q 2569 213 2275 61 
Q 1981 -91 1556 -91 
Q 1019 -91 701 211 
Q 384 513 384 1019 
Q 384 1609 779 1909 
Q 1175 2209 1959 2209 
L 2766 2209 
L 2766 2266 
Q 2766 2663 2505 2880 
Q 2244 3097 1772 3097 
Q 1472 3097 1187 3025 
Q 903 2953 641 2809 
L 641 3341 
Q 956 3463 1253 3523 
Q 1550 3584 1831 3584 
Q 2591 3584 2966 3190 
Q 3341 2797 3341 1997 
z
" transform="scale(0.015625)"/>
       <path id="DejaVuSans-20" transform="scale(0.015625)"/>
       <path id="DejaVuSans-6f" d="M 1959 3097 
Q 1497 3097 1228 2736 
Q 959 2375 959 1747 
Q 959 1119 1226 758 
Q 1494 397 1959 397 
Q 2419 397 2687 759 
Q 2956 1122 2956 1747 
Q 2956 2369 2687 2733 
Q 2419 3097 1959 3097 
z
M 1959 3584 
Q 2709 3584 3137 3096 
Q 3566 2609 3566 1747 
Q 3566 888 3137 398 
Q 2709 -91 1959 -91 
Q 1206 -91 779 398 
Q 353 888 353 1747 
Q 353 2609 779 3096 
Q 1206 3584 1959 3584 
z
" transform="scale(0.015625)"/>
       <path id="DejaVuSans-6e" d="M 3513 2113 
L 3513 0 
L 2938 0 
L 2938 2094 
Q 2938 2591 2744 2837 
Q 2550 3084 2163 3084 
Q 1697 3084 1428 2787 
Q 1159 2491 1159 1978 
L 1159 0 
L 581 0 
L 581 3500 
L 1159 3500 
L 1159 2956 
Q 1366 3272 1645 3428 
Q 1925 3584 2291 3584 
Q 2894 3584 3203 3211 
Q 3513 2838 3513 2113 
z
" transform="scale(0.015625)"/>
       <path id="DejaVuSans-2d" d="M 313 2009 
L 1997 2009 
L 1997 1497 
L 313 1497 
L 313 2009 
z
" transform="scale(0.015625)"/>
       <path id="DejaVuSans-78" d="M 3513 3500 
L 2247 1797 
L 3578 0 
L 2900 0 
L 1881 1375 
L 863 0 
L 184 0 
L 1544 1831 
L 300 3500 
L 978 3500 
L 1906 2253 
L 2834 3500 
L 3513 3500 
z
" transform="scale(0.015625)"/>
       <path id="DejaVuSans-69" d="M 603 3500 
L 1178 3500 
L 1178 0 
L 603 0 
L 603 3500 
z
M 603 4863 
L 1178 4863 
L 1178 4134 
L 603 4134 
L 603 4863 
z
" transform="scale(0.015625)"/>
       <path id="DejaVuSans-73" d="M 2834 3397 
L 2834 2853 
Q 2591 2978 2328 3040 
Q 2066 3103 1784 3103 
Q 1356 3103 1142 2972 
Q 928 2841 928 2578 
Q 928 2378 1081 2264 
Q 1234 2150 1697 2047 
L 1894 2003 
Q 2506 1872 2764 1633 
Q 3022 1394 3022 966 
Q 3022 478 2636 193 
Q 2250 -91 1575 -91 
Q 1294 -91 989 -36 
Q 684 19 347 128 
L 347 722 
Q 666 556 975 473 
Q 1284 391 1588 391 
Q 1994 391 2212 530 
Q 2431 669 2431 922 
Q 2431 1156 2273 1281 
Q 2116 1406 1581 1522 
L 1381 1569 
Q 847 1681 609 1914 
Q 372 2147 372 2553 
Q 372 3047 722 3315 
Q 1072 3584 1716 3584 
Q 2034 3584 2315 3537 
Q 2597 3491 2834 3397 
z
" transform="scale(0.015625)"/>
       <path id="DejaVuSans-76" d="M 191 3500 
L 800 3500 
L 1894 563 
L 2988 3500 
L 3597 3500 
L 2284 0 
L 1503 0 
L 191 3500 
z
" transform="scale(0.015625)"/>
       <path id="DejaVuSans-2c" d="M 750 794 
L 1409 794 
L 1409 256 
L 897 -744 
L 494 -744 
L 750 256 
L 750 794 
z
" transform="scale(0.015625)"/>
       <path id="DejaVuSans-68" d="M 3513 2113 
L 3513 0 
L 2938 0 
L 2938 2094 
Q 2938 2591 2744 2837 
Q 2550 3084 2163 3084 
Q 1697 3084 1428 2787 
Q 1159 2491 1159 1978 
L 1159 0 
L 581 0 
L 581 4863 
L 1159 4863 
L 1159 2956 
Q 1366 3272 1645 3428 
Q 1925 3584 2291 3584 
Q 2894 3584 3203 3211 
Q 3513 2838 3513 2113 
z
" transform="scale(0.015625)"/>
       <path id="DejaVuSans-67" d="M 2906 1791 
Q 2906 2416 2648 2759 
Q 2391 3103 1925 3103 
Q 1463 3103 1205 2759 
Q 947 2416 947 1791 
Q 947 1169 1205 825 
Q 1463 481 1925 481 
Q 2391 481 2648 825 
Q 2906 1169 2906 1791 
z
M 3481 434 
Q 3481 -459 3084 -895 
Q 2688 -1331 1869 -1331 
Q 1566 -1331 1297 -1286 
Q 1028 -1241 775 -1147 
L 775 -588 
Q 1028 -725 1275 -790 
Q 1522 -856 1778 -856 
Q 2344 -856 2625 -561 
Q 2906 -266 2906 331 
L 2906 616 
Q 2728 306 2450 153 
Q 2172 0 1784 0 
Q 1141 0 747 490 
Q 353 981 353 1791 
Q 353 2603 747 3093 
Q 1141 3584 1784 3584 
Q 2172 3584 2450 3431 
Q 2728 3278 2906 2969 
L 2906 3500 
L 3481 3500 
L 3481 434 
z
" transform="scale(0.015625)"/>
       <path id="DejaVuSans-72" d="M 2631 2963 
Q 2534 3019 2420 3045 
Q 2306 3072 2169 3072 
Q 1681 3072 1420 2755 
Q 1159 2438 1159 1844 
L 1159 0 
L 581 0 
L 581 3500 
L 1159 3500 
L 1159 2956 
Q 1341 3275 1631 3429 
Q 1922 3584 2338 3584 
Q 2397 3584 2469 3576 
Q 2541 3569 2628 3553 
L 2631 2963 
z
" transform="scale(0.015625)"/>
       <path id="DejaVuSans-62" d="M 3116 1747 
Q 3116 2381 2855 2742 
Q 2594 3103 2138 3103 
Q 1681 3103 1420 2742 
Q 1159 2381 1159 1747 
Q 1159 1113 1420 752 
Q 1681 391 2138 391 
Q 2594 391 2855 752 
Q 3116 1113 3116 1747 
z
M 1159 2969 
Q 1341 3281 1617 3432 
Q 1894 3584 2278 3584 
Q 2916 3584 3314 3078 
Q 3713 2572 3713 1747 
Q 3713 922 3314 415 
Q 2916 -91 2278 -91 
Q 1894 -91 1617 61 
Q 1341 213 1159 525 
L 1159 0 
L 581 0 
L 581 4863 
L 1159 4863 
L 1159 2969 
z
" transform="scale(0.015625)"/>
      </defs>
      <use xlink:href="#DejaVuSans-74"/>
      <use xlink:href="#DejaVuSans-65" transform="translate(39.208984 0)"/>
      <use xlink:href="#DejaVuSans-6d" transform="translate(100.732422 0)"/>
      <use xlink:href="#DejaVuSans-70" transform="translate(198.144531 0)"/>
      <use xlink:href="#DejaVuSans-6c" transform="translate(261.621094 0)"/>
      <use xlink:href="#DejaVuSans-61" transform="translate(289.404297 0)"/>
      <use xlink:href="#DejaVuSans-74" transform="translate(350.683594 0)"/>
      <use xlink:href="#DejaVuSans-65" transform="translate(389.892578 0)"/>
      <use xlink:href="#DejaVuSans-20" transform="translate(451.416016 0)"/>
      <use xlink:href="#DejaVuSans-6f" transform="translate(483.203125 0)"/>
      <use xlink:href="#DejaVuSans-6e" transform="translate(544.384766 0)"/>
      <use xlink:href="#DejaVuSans-2d" transform="translate(607.763672 0)"/>
      <use xlink:href="#DejaVuSans-61" transform="translate(643.847656 0)"/>
      <use xlink:href="#DejaVuSans-78" transform="translate(705.126953 0)"/>
      <use xlink:href="#DejaVuSans-69" transform="translate(764.306641 0)"/>
      <use xlink:href="#DejaVuSans-73" transform="translate(792.089844 0)"/>
      <use xlink:href="#DejaVuSans-20" transform="translate(844.189453 0)"/>
      <use xlink:href="#DejaVuSans-6d" transform="translate(875.976562 0)"/>
      <use xlink:href="#DejaVuSans-6f" transform="translate(973.388672 0)"/>
      <use xlink:href="#DejaVuSans-76" transform="translate(1034.570312 0)"/>
      <use xlink:href="#DejaVuSans-65" transform="translate(1093.75 0)"/>
      <use xlink:href="#DejaVuSans-6d" transform="translate(1155.273438 0)"/>
      <use xlink:href="#DejaVuSans-65" transform="translate(1252.685547 0)"/>
      <use xlink:href="#DejaVuSans-6e" transform="translate(1314.208984 0)"/>
      <use xlink:href="#DejaVuSans-74" transform="translate(1377.587891 0)"/>
      <use xlink:href="#DejaVuSans-2c" transform="translate(1416.796875 0)"/>
      <use xlink:href="#DejaVuSans-20" transform="translate(1448.583984 0)"/>
      <use xlink:href="#DejaVuSans-68" transform="translate(1480.371094 0)"/>
      <use xlink:href="#DejaVuSans-69" transform="translate(1543.75 0)"/>
      <use xlink:href="#DejaVuSans-67" transform="translate(1571.533203 0)"/>
      <use xlink:href="#DejaVuSans-68" transform="translate(1635.009766 0)"/>
      <use xlink:href="#DejaVuSans-65" transform="translate(1698.388672 0)"/>
      <use xlink:href="#DejaVuSans-72" transform="translate(1759.912109 0)"/>
      <use xlink:href="#DejaVuSans-20" transform="translate(1801.025391 0)"/>
      <use xlink:href="#DejaVuSans-69" transform="translate(1832.8125 0)"/>
      <use xlink:href="#DejaVuSans-73" transform="translate(1860.595703 0)"/>
      <use xlink:href="#DejaVuSans-20" transform="translate(1912.695312 0)"/>
      <use xlink:href="#DejaVuSans-62" transform="translate(1944.482422 0)"/>
      <use xlink:href="#DejaVuSans-65" transform="translate(2007.958984 0)"/>
      <use xlink:href="#DejaVuSans-74" transform="translate(2069.482422 0)"/>
      <use xlink:href="#DejaVuSans-74" transform="translate(2108.691406 0)"/>
      <use xlink:href="#DejaVuSans-65" transform="translate(2147.900391 0)"/>
      <use xlink:href="#DejaVuSans-72" transform="translate(2209.423828 0)"/>
     </g>
    </g>
   </g>
   <g id="matplotlib.axis_2">
    <g id="ytick_1">
     <g id="line2d_13">
      <path d="M 43.3 315.917308 
L 522 315.917308 
" clip-path="url(#pfe8687c3b5)" style="fill: none; stroke: #ebebeb; stroke-width: 0.45; stroke-linecap: square"/>
     </g>
     <g id="line2d_14">
      <defs>
       <path id="mf617facea1" d="M 0 0 
L -3 0 
" style="stroke: #404040; stroke-width: 0.7"/>
      </defs>
      <g>
       <use xlink:href="#mf617facea1" x="43.3" y="315.917308" style="fill: #404040; stroke: #404040; stroke-width: 0.7"/>
      </g>
     </g>
     <g id="text_8">
      <!-- 0.0 -->
      <g transform="translate(24.0775 318.956683) scale(0.08 -0.08)">
       <use xlink:href="#DejaVuSans-30"/>
       <use xlink:href="#DejaVuSans-2e" transform="translate(63.623047 0)"/>
       <use xlink:href="#DejaVuSans-30" transform="translate(95.410156 0)"/>
      </g>
     </g>
    </g>
    <g id="ytick_2">
     <g id="line2d_15">
      <path d="M 43.3 256.090385 
L 522 256.090385 
" clip-path="url(#pfe8687c3b5)" style="fill: none; stroke: #ebebeb; stroke-width: 0.45; stroke-linecap: square"/>
     </g>
     <g id="line2d_16">
      <g>
       <use xlink:href="#mf617facea1" x="43.3" y="256.090385" style="fill: #404040; stroke: #404040; stroke-width: 0.7"/>
      </g>
     </g>
     <g id="text_9">
      <!-- 0.2 -->
      <g transform="translate(24.0775 259.12976) scale(0.08 -0.08)">
       <use xlink:href="#DejaVuSans-30"/>
       <use xlink:href="#DejaVuSans-2e" transform="translate(63.623047 0)"/>
       <use xlink:href="#DejaVuSans-32" transform="translate(95.410156 0)"/>
      </g>
     </g>
    </g>
    <g id="ytick_3">
     <g id="line2d_17">
      <path d="M 43.3 196.263462 
L 522 196.263462 
" clip-path="url(#pfe8687c3b5)" style="fill: none; stroke: #ebebeb; stroke-width: 0.45; stroke-linecap: square"/>
     </g>
     <g id="line2d_18">
      <g>
       <use xlink:href="#mf617facea1" x="43.3" y="196.263462" style="fill: #404040; stroke: #404040; stroke-width: 0.7"/>
      </g>
     </g>
     <g id="text_10">
      <!-- 0.4 -->
      <g transform="translate(24.0775 199.302837) scale(0.08 -0.08)">
       <use xlink:href="#DejaVuSans-30"/>
       <use xlink:href="#DejaVuSans-2e" transform="translate(63.623047 0)"/>
       <use xlink:href="#DejaVuSans-34" transform="translate(95.410156 0)"/>
      </g>
     </g>
    </g>
    <g id="ytick_4">
     <g id="line2d_19">
      <path d="M 43.3 136.436538 
L 522 136.436538 
" clip-path="url(#pfe8687c3b5)" style="fill: none; stroke: #ebebeb; stroke-width: 0.45; stroke-linecap: square"/>
     </g>
     <g id="line2d_20">
      <g>
       <use xlink:href="#mf617facea1" x="43.3" y="136.436538" style="fill: #404040; stroke: #404040; stroke-width: 0.7"/>
      </g>
     </g>
     <g id="text_11">
      <!-- 0.6 -->
      <g transform="translate(24.0775 139.475913) scale(0.08 -0.08)">
       <use xlink:href="#DejaVuSans-30"/>
       <use xlink:href="#DejaVuSans-2e" transform="translate(63.623047 0)"/>
       <use xlink:href="#DejaVuSans-36" transform="translate(95.410156 0)"/>
      </g>
     </g>
    </g>
    <g id="ytick_5">
     <g id="line2d_21">
      <path d="M 43.3 76.609615 
L 522 76.609615 
" clip-path="url(#pfe8687c3b5)" style="fill: none; stroke: #ebebeb; stroke-width: 0.45; stroke-linecap: square"/>
     </g>
     <g id="line2d_22">
      <g>
       <use xlink:href="#mf617facea1" x="43.3" y="76.609615" style="fill: #404040; stroke: #404040; stroke-width: 0.7"/>
      </g>
     </g>
     <g id="text_12">
      <!-- 0.8 -->
      <g transform="translate(24.0775 79.64899) scale(0.08 -0.08)">
       <use xlink:href="#DejaVuSans-30"/>
       <use xlink:href="#DejaVuSans-2e" transform="translate(63.623047 0)"/>
       <use xlink:href="#DejaVuSans-38" transform="translate(95.410156 0)"/>
      </g>
     </g>
    </g>
    <g id="ytick_6">
     <g id="line2d_23">
      <path d="M 43.3 16.782692 
L 522 16.782692 
" clip-path="url(#pfe8687c3b5)" style="fill: none; stroke: #ebebeb; stroke-width: 0.45; stroke-linecap: square"/>
     </g>
     <g id="line2d_24">
      <g>
       <use xlink:href="#mf617facea1" x="43.3" y="16.782692" style="fill: #404040; stroke: #404040; stroke-width: 0.7"/>
      </g>
     </g>
     <g id="text_13">
      <!-- 1.0 -->
      <g transform="translate(24.0775 19.822067) scale(0.08 -0.08)">
       <use xlink:href="#DejaVuSans-31"/>
       <use xlink:href="#DejaVuSans-2e" transform="translate(63.623047 0)"/>
       <use xlink:href="#DejaVuSans-30" transform="translate(95.410156 0)"/>
      </g>
     </g>
    </g>
    <g id="text_14">
     <!-- template off-axis confounding, lower is better -->
     <g transform="translate(18.205781 269.164453) rotate(-90) scale(0.09 -0.09)">
      <defs>
       <path id="DejaVuSans-66" d="M 2375 4863 
L 2375 4384 
L 1825 4384 
Q 1516 4384 1395 4259 
Q 1275 4134 1275 3809 
L 1275 3500 
L 2222 3500 
L 2222 3053 
L 1275 3053 
L 1275 0 
L 697 0 
L 697 3053 
L 147 3053 
L 147 3500 
L 697 3500 
L 697 3744 
Q 697 4328 969 4595 
Q 1241 4863 1831 4863 
L 2375 4863 
z
" transform="scale(0.015625)"/>
       <path id="DejaVuSans-63" d="M 3122 3366 
L 3122 2828 
Q 2878 2963 2633 3030 
Q 2388 3097 2138 3097 
Q 1578 3097 1268 2742 
Q 959 2388 959 1747 
Q 959 1106 1268 751 
Q 1578 397 2138 397 
Q 2388 397 2633 464 
Q 2878 531 3122 666 
L 3122 134 
Q 2881 22 2623 -34 
Q 2366 -91 2075 -91 
Q 1284 -91 818 406 
Q 353 903 353 1747 
Q 353 2603 823 3093 
Q 1294 3584 2113 3584 
Q 2378 3584 2631 3529 
Q 2884 3475 3122 3366 
z
" transform="scale(0.015625)"/>
       <path id="DejaVuSans-75" d="M 544 1381 
L 544 3500 
L 1119 3500 
L 1119 1403 
Q 1119 906 1312 657 
Q 1506 409 1894 409 
Q 2359 409 2629 706 
Q 2900 1003 2900 1516 
L 2900 3500 
L 3475 3500 
L 3475 0 
L 2900 0 
L 2900 538 
Q 2691 219 2414 64 
Q 2138 -91 1772 -91 
Q 1169 -91 856 284 
Q 544 659 544 1381 
z
M 1991 3584 
L 1991 3584 
z
" transform="scale(0.015625)"/>
       <path id="DejaVuSans-64" d="M 2906 2969 
L 2906 4863 
L 3481 4863 
L 3481 0 
L 2906 0 
L 2906 525 
Q 2725 213 2448 61 
Q 2172 -91 1784 -91 
Q 1150 -91 751 415 
Q 353 922 353 1747 
Q 353 2572 751 3078 
Q 1150 3584 1784 3584 
Q 2172 3584 2448 3432 
Q 2725 3281 2906 2969 
z
M 947 1747 
Q 947 1113 1208 752 
Q 1469 391 1925 391 
Q 2381 391 2643 752 
Q 2906 1113 2906 1747 
Q 2906 2381 2643 2742 
Q 2381 3103 1925 3103 
Q 1469 3103 1208 2742 
Q 947 2381 947 1747 
z
" transform="scale(0.015625)"/>
       <path id="DejaVuSans-77" d="M 269 3500 
L 844 3500 
L 1563 769 
L 2278 3500 
L 2956 3500 
L 3675 769 
L 4391 3500 
L 4966 3500 
L 4050 0 
L 3372 0 
L 2619 2869 
L 1863 0 
L 1184 0 
L 269 3500 
z
" transform="scale(0.015625)"/>
      </defs>
      <use xlink:href="#DejaVuSans-74"/>
      <use xlink:href="#DejaVuSans-65" transform="translate(39.208984 0)"/>
      <use xlink:href="#DejaVuSans-6d" transform="translate(100.732422 0)"/>
      <use xlink:href="#DejaVuSans-70" transform="translate(198.144531 0)"/>
      <use xlink:href="#DejaVuSans-6c" transform="translate(261.621094 0)"/>
      <use xlink:href="#DejaVuSans-61" transform="translate(289.404297 0)"/>
      <use xlink:href="#DejaVuSans-74" transform="translate(350.683594 0)"/>
      <use xlink:href="#DejaVuSans-65" transform="translate(389.892578 0)"/>
      <use xlink:href="#DejaVuSans-20" transform="translate(451.416016 0)"/>
      <use xlink:href="#DejaVuSans-6f" transform="translate(483.203125 0)"/>
      <use xlink:href="#DejaVuSans-66" transform="translate(544.384766 0)"/>
      <use xlink:href="#DejaVuSans-66" transform="translate(579.589844 0)"/>
      <use xlink:href="#DejaVuSans-2d" transform="translate(609.294922 0)"/>
      <use xlink:href="#DejaVuSans-61" transform="translate(645.378906 0)"/>
      <use xlink:href="#DejaVuSans-78" transform="translate(706.658203 0)"/>
      <use xlink:href="#DejaVuSans-69" transform="translate(765.837891 0)"/>
      <use xlink:href="#DejaVuSans-73" transform="translate(793.621094 0)"/>
      <use xlink:href="#DejaVuSans-20" transform="translate(845.720703 0)"/>
      <use xlink:href="#DejaVuSans-63" transform="translate(877.507812 0)"/>
      <use xlink:href="#DejaVuSans-6f" transform="translate(932.488281 0)"/>
      <use xlink:href="#DejaVuSans-6e" transform="translate(993.669922 0)"/>
      <use xlink:href="#DejaVuSans-66" transform="translate(1057.048828 0)"/>
      <use xlink:href="#DejaVuSans-6f" transform="translate(1092.253906 0)"/>
      <use xlink:href="#DejaVuSans-75" transform="translate(1153.435547 0)"/>
      <use xlink:href="#DejaVuSans-6e" transform="translate(1216.814453 0)"/>
      <use xlink:href="#DejaVuSans-64" transform="translate(1280.193359 0)"/>
      <use xlink:href="#DejaVuSans-69" transform="translate(1343.669922 0)"/>
      <use xlink:href="#DejaVuSans-6e" transform="translate(1371.453125 0)"/>
      <use xlink:href="#DejaVuSans-67" transform="translate(1434.832031 0)"/>
      <use xlink:href="#DejaVuSans-2c" transform="translate(1498.308594 0)"/>
      <use xlink:href="#DejaVuSans-20" transform="translate(1530.095703 0)"/>
      <use xlink:href="#DejaVuSans-6c" transform="translate(1561.882812 0)"/>
      <use xlink:href="#DejaVuSans-6f" transform="translate(1589.666016 0)"/>
      <use xlink:href="#DejaVuSans-77" transform="translate(1650.847656 0)"/>
      <use xlink:href="#DejaVuSans-65" transform="translate(1732.634766 0)"/>
      <use xlink:href="#DejaVuSans-72" transform="translate(1794.158203 0)"/>
      <use xlink:href="#DejaVuSans-20" transform="translate(1835.271484 0)"/>
      <use xlink:href="#DejaVuSans-69" transform="translate(1867.058594 0)"/>
      <use xlink:href="#DejaVuSans-73" transform="translate(1894.841797 0)"/>
      <use xlink:href="#DejaVuSans-20" transform="translate(1946.941406 0)"/>
      <use xlink:href="#DejaVuSans-62" transform="translate(1978.728516 0)"/>
      <use xlink:href="#DejaVuSans-65" transform="translate(2042.205078 0)"/>
      <use xlink:href="#DejaVuSans-74" transform="translate(2103.728516 0)"/>
      <use xlink:href="#DejaVuSans-74" transform="translate(2142.9375 0)"/>
      <use xlink:href="#DejaVuSans-65" transform="translate(2182.146484 0)"/>
      <use xlink:href="#DejaVuSans-72" transform="translate(2243.669922 0)"/>
     </g>
    </g>
   </g>
   <g id="PathCollection_1">
    <defs>
     <path id="C0_0_67f49a58f6" d="M 0 2.345208 
C 0.621956 2.345208 1.218523 2.098102 1.658312 1.658312 
C 2.098102 1.218523 2.345208 0.621956 2.345208 -0 
C 2.345208 -0.621956 2.098102 -1.218523 1.658312 -1.658312 
C 1.218523 -2.098102 0.621956 -2.345208 0 -2.345208 
C -0.621956 -2.345208 -1.218523 -2.098102 -1.658312 -1.658312 
C -2.098102 -1.218523 -2.345208 -0.621956 -2.345208 0 
C -2.345208 0.621956 -2.098102 1.218523 -1.658312 1.658312 
C -1.218523 2.098102 -0.621956 2.345208 0 2.345208 
z
"/>
    </defs>
    <g clip-path="url(#pfe8687c3b5)">
     <use xlink:href="#C0_0_67f49a58f6" x="256.068341" y="187.538702" style="fill: #1f1f1f; fill-opacity: 0.9"/>
    </g>
    <g clip-path="url(#pfe8687c3b5)">
     <use xlink:href="#C0_0_67f49a58f6" x="272.926406" y="213.712981" style="fill: #1f1f1f; fill-opacity: 0.9"/>
    </g>
    <g clip-path="url(#pfe8687c3b5)">
     <use xlink:href="#C0_0_67f49a58f6" x="286.965204" y="203.741827" style="fill: #1f1f1f; fill-opacity: 0.9"/>
    </g>
    <g clip-path="url(#pfe8687c3b5)">
     <use xlink:href="#C0_0_67f49a58f6" x="333.339267" y="198.157981" style="fill: #b8b8b8; fill-opacity: 0.9"/>
    </g>
    <g clip-path="url(#pfe8687c3b5)">
     <use xlink:href="#C0_0_67f49a58f6" x="379.368113" y="181.306731" style="fill: #b8b8b8; fill-opacity: 0.9"/>
    </g>
    <g clip-path="url(#pfe8687c3b5)">
     <use xlink:href="#C0_0_67f49a58f6" x="277.989579" y="198.157981" style="fill: #b8b8b8; fill-opacity: 0.9"/>
    </g>
    <g clip-path="url(#pfe8687c3b5)">
     <use xlink:href="#C0_0_67f49a58f6" x="138.464639" y="209.973798" style="fill: #1f1f1f; fill-opacity: 0.9"/>
    </g>
    <g clip-path="url(#pfe8687c3b5)">
     <use xlink:href="#C0_0_67f49a58f6" x="298.1272" y="183.799519" style="fill: #b8b8b8; fill-opacity: 0.9"/>
    </g>
    <g clip-path="url(#pfe8687c3b5)">
     <use xlink:href="#C0_0_67f49a58f6" x="269.359171" y="179.462067" style="fill: #b8b8b8; fill-opacity: 0.9"/>
    </g>
    <g clip-path="url(#pfe8687c3b5)">
     <use xlink:href="#C0_0_67f49a58f6" x="248.876334" y="176.919423" style="fill: #b8b8b8; fill-opacity: 0.9"/>
    </g>
    <g clip-path="url(#pfe8687c3b5)">
     <use xlink:href="#C0_0_67f49a58f6" x="240.936358" y="268.554327" style="fill: #b8b8b8; fill-opacity: 0.9"/>
    </g>
    <g clip-path="url(#pfe8687c3b5)">
     <use xlink:href="#C0_0_67f49a58f6" x="202.444736" y="204.988221" style="fill: #1f1f1f; fill-opacity: 0.9"/>
    </g>
    <g clip-path="url(#pfe8687c3b5)">
     <use xlink:href="#C0_0_67f49a58f6" x="294.157212" y="223.085865" style="fill: #b8b8b8; fill-opacity: 0.9"/>
    </g>
    <g clip-path="url(#pfe8687c3b5)">
     <use xlink:href="#C0_0_67f49a58f6" x="150.662284" y="271.047115" style="fill: #b8b8b8; fill-opacity: 0.9"/>
    </g>
    <g clip-path="url(#pfe8687c3b5)">
     <use xlink:href="#C0_0_67f49a58f6" x="321.141623" y="236.796202" style="fill: #b8b8b8; fill-opacity: 0.9"/>
    </g>
    <g clip-path="url(#pfe8687c3b5)">
     <use xlink:href="#C0_0_67f49a58f6" x="284.433618" y="198.75625" style="fill: #1f1f1f; fill-opacity: 0.9"/>
    </g>
    <g clip-path="url(#pfe8687c3b5)">
     <use xlink:href="#C0_0_67f49a58f6" x="211.075144" y="190.62976" style="fill: #b8b8b8; fill-opacity: 0.9"/>
    </g>
    <g clip-path="url(#pfe8687c3b5)">
     <use xlink:href="#C0_0_67f49a58f6" x="304.571238" y="233.007163" style="fill: #b8b8b8; fill-opacity: 0.9"/>
    </g>
    <g clip-path="url(#pfe8687c3b5)">
     <use xlink:href="#C0_0_67f49a58f6" x="285.181587" y="191.277885" style="fill: #b8b8b8; fill-opacity: 0.9"/>
    </g>
    <g clip-path="url(#pfe8687c3b5)">
     <use xlink:href="#C0_0_67f49a58f6" x="204.976322" y="266.659808" style="fill: #1f1f1f; fill-opacity: 0.9"/>
    </g>
    <g clip-path="url(#pfe8687c3b5)">
     <use xlink:href="#C0_0_67f49a58f6" x="342.314892" y="200.650769" style="fill: #b8b8b8; fill-opacity: 0.9"/>
    </g>
    <g clip-path="url(#pfe8687c3b5)">
     <use xlink:href="#C0_0_67f49a58f6" x="386.905337" y="195.017067" style="fill: #1f1f1f; fill-opacity: 0.9"/>
    </g>
    <g clip-path="url(#pfe8687c3b5)">
     <use xlink:href="#C0_0_67f49a58f6" x="238.059555" y="198.75625" style="fill: #b8b8b8; fill-opacity: 0.9"/>
    </g>
    <g clip-path="url(#pfe8687c3b5)">
     <use xlink:href="#C0_0_67f49a58f6" x="178.73988" y="244.872837" style="fill: #b8b8b8; fill-opacity: 0.9"/>
    </g>
    <g clip-path="url(#pfe8687c3b5)">
     <use xlink:href="#C0_0_67f49a58f6" x="303.880805" y="187.538702" style="fill: #1f1f1f; fill-opacity: 0.9"/>
    </g>
    <g clip-path="url(#pfe8687c3b5)">
     <use xlink:href="#C0_0_67f49a58f6" x="277.989579" y="222.43774" style="fill: #b8b8b8; fill-opacity: 0.9"/>
    </g>
    <g clip-path="url(#pfe8687c3b5)">
     <use xlink:href="#C0_0_67f49a58f6" x="218.267151" y="232.408894" style="fill: #b8b8b8; fill-opacity: 0.9"/>
    </g>
    <g clip-path="url(#pfe8687c3b5)">
     <use xlink:href="#C0_0_67f49a58f6" x="262.167163" y="245.471106" style="fill: #b8b8b8; fill-opacity: 0.9"/>
    </g>
    <g clip-path="url(#pfe8687c3b5)">
     <use xlink:href="#C0_0_67f49a58f6" x="216.483534" y="252.949471" style="fill: #b8b8b8; fill-opacity: 0.9"/>
    </g>
    <g clip-path="url(#pfe8687c3b5)">
     <use xlink:href="#C0_0_67f49a58f6" x="270.797572" y="226.775192" style="fill: #b8b8b8; fill-opacity: 0.9"/>
    </g>
    <g clip-path="url(#pfe8687c3b5)">
     <use xlink:href="#C0_0_67f49a58f6" x="276.551178" y="180.060337" style="fill: #b8b8b8; fill-opacity: 0.9"/>
    </g>
    <g clip-path="url(#pfe8687c3b5)">
     <use xlink:href="#C0_0_67f49a58f6" x="251.005168" y="233.655288" style="fill: #1f1f1f; fill-opacity: 0.9"/>
    </g>
    <g clip-path="url(#pfe8687c3b5)">
     <use xlink:href="#C0_0_67f49a58f6" x="147.785481" y="213.712981" style="fill: #b8b8b8; fill-opacity: 0.9"/>
    </g>
    <g clip-path="url(#pfe8687c3b5)">
     <use xlink:href="#C0_0_67f49a58f6" x="273.674375" y="186.292308" style="fill: #b8b8b8; fill-opacity: 0.9"/>
    </g>
    <g clip-path="url(#pfe8687c3b5)">
     <use xlink:href="#C0_0_67f49a58f6" x="194.159543" y="206.832885" style="fill: #b8b8b8; fill-opacity: 0.9"/>
    </g>
    <g clip-path="url(#pfe8687c3b5)">
     <use xlink:href="#C0_0_67f49a58f6" x="277.586827" y="193.172404" style="fill: #b8b8b8; fill-opacity: 0.9"/>
    </g>
    <g clip-path="url(#pfe8687c3b5)">
     <use xlink:href="#C0_0_67f49a58f6" x="273.271623" y="215.557644" style="fill: #1f1f1f; fill-opacity: 0.9"/>
    </g>
    <g clip-path="url(#pfe8687c3b5)">
     <use xlink:href="#C0_0_67f49a58f6" x="301.694435" y="198.75625" style="fill: #1f1f1f; fill-opacity: 0.9"/>
    </g>
    <g clip-path="url(#pfe8687c3b5)">
     <use xlink:href="#C0_0_67f49a58f6" x="176.956262" y="211.220192" style="fill: #b8b8b8; fill-opacity: 0.9"/>
    </g>
    <g clip-path="url(#pfe8687c3b5)">
     <use xlink:href="#C0_0_67f49a58f6" x="320.393654" y="197.509856" style="fill: #b8b8b8; fill-opacity: 0.9"/>
    </g>
    <g clip-path="url(#pfe8687c3b5)">
     <use xlink:href="#C0_0_67f49a58f6" x="204.228353" y="217.452163" style="fill: #1f1f1f; fill-opacity: 0.9"/>
    </g>
    <g clip-path="url(#pfe8687c3b5)">
     <use xlink:href="#C0_0_67f49a58f6" x="283.397969" y="171.335577" style="fill: #b8b8b8; fill-opacity: 0.9"/>
    </g>
    <g clip-path="url(#pfe8687c3b5)">
     <use xlink:href="#C0_0_67f49a58f6" x="290.935192" y="246.7175" style="fill: #1f1f1f; fill-opacity: 0.9"/>
    </g>
    <g clip-path="url(#pfe8687c3b5)">
     <use xlink:href="#C0_0_67f49a58f6" x="247.380397" y="195.017067" style="fill: #b8b8b8; fill-opacity: 0.9"/>
    </g>
    <g clip-path="url(#pfe8687c3b5)">
     <use xlink:href="#C0_0_67f49a58f6" x="269.013954" y="202.495433" style="fill: #1f1f1f; fill-opacity: 0.9"/>
    </g>
    <g clip-path="url(#pfe8687c3b5)">
     <use xlink:href="#C0_0_67f49a58f6" x="234.089567" y="188.186827" style="fill: #b8b8b8; fill-opacity: 0.9"/>
    </g>
    <g clip-path="url(#pfe8687c3b5)">
     <use xlink:href="#C0_0_67f49a58f6" x="272.926406" y="153.237933" style="fill: #b8b8b8; fill-opacity: 0.9"/>
    </g>
    <g clip-path="url(#pfe8687c3b5)">
     <use xlink:href="#C0_0_67f49a58f6" x="121.894255" y="216.853894" style="fill: #b8b8b8; fill-opacity: 0.9"/>
    </g>
    <g clip-path="url(#pfe8687c3b5)">
     <use xlink:href="#C0_0_67f49a58f6" x="309.979627" y="186.940433" style="fill: #b8b8b8; fill-opacity: 0.9"/>
    </g>
    <g clip-path="url(#pfe8687c3b5)">
     <use xlink:href="#C0_0_67f49a58f6" x="171.893089" y="239.239135" style="fill: #b8b8b8; fill-opacity: 0.9"/>
    </g>
    <g clip-path="url(#pfe8687c3b5)">
     <use xlink:href="#C0_0_67f49a58f6" x="268.611202" y="183.151394" style="fill: #b8b8b8; fill-opacity: 0.9"/>
    </g>
    <g clip-path="url(#pfe8687c3b5)">
     <use xlink:href="#C0_0_67f49a58f6" x="207.853125" y="202.495433" style="fill: #b8b8b8; fill-opacity: 0.9"/>
    </g>
    <g clip-path="url(#pfe8687c3b5)">
     <use xlink:href="#C0_0_67f49a58f6" x="224.365974" y="284.159183" style="fill: #1f1f1f; fill-opacity: 0.9"/>
    </g>
    <g clip-path="url(#pfe8687c3b5)">
     <use xlink:href="#C0_0_67f49a58f6" x="297.034014" y="228.021587" style="fill: #b8b8b8; fill-opacity: 0.9"/>
    </g>
    <g clip-path="url(#pfe8687c3b5)">
     <use xlink:href="#C0_0_67f49a58f6" x="237.311587" y="237.394471" style="fill: #b8b8b8; fill-opacity: 0.9"/>
    </g>
    <g clip-path="url(#pfe8687c3b5)">
     <use xlink:href="#C0_0_67f49a58f6" x="261.073978" y="182.553125" style="fill: #b8b8b8; fill-opacity: 0.9"/>
    </g>
    <g clip-path="url(#pfe8687c3b5)">
     <use xlink:href="#C0_0_67f49a58f6" x="144.563462" y="261.075962" style="fill: #1f1f1f; fill-opacity: 0.9"/>
    </g>
    <g clip-path="url(#pfe8687c3b5)">
     <use xlink:href="#C0_0_67f49a58f6" x="244.906346" y="192.524279" style="fill: #1f1f1f; fill-opacity: 0.9"/>
    </g>
    <g clip-path="url(#pfe8687c3b5)">
     <use xlink:href="#C0_0_67f49a58f6" x="110.041827" y="284.757452" style="fill: #1f1f1f; fill-opacity: 0.9"/>
    </g>
    <g clip-path="url(#pfe8687c3b5)">
     <use xlink:href="#C0_0_67f49a58f6" x="267.1728" y="172.581971" style="fill: #b8b8b8; fill-opacity: 0.9"/>
    </g>
    <g clip-path="url(#pfe8687c3b5)">
     <use xlink:href="#C0_0_67f49a58f6" x="168.67107" y="203.093702" style="fill: #b8b8b8; fill-opacity: 0.9"/>
    </g>
    <g clip-path="url(#pfe8687c3b5)">
     <use xlink:href="#C0_0_67f49a58f6" x="233.399135" y="193.172404" style="fill: #b8b8b8; fill-opacity: 0.9"/>
    </g>
    <g clip-path="url(#pfe8687c3b5)">
     <use xlink:href="#C0_0_67f49a58f6" x="216.82875" y="176.919423" style="fill: #b8b8b8; fill-opacity: 0.9"/>
    </g>
    <g clip-path="url(#pfe8687c3b5)">
     <use xlink:href="#C0_0_67f49a58f6" x="249.22155" y="193.172404" style="fill: #b8b8b8; fill-opacity: 0.9"/>
    </g>
    <g clip-path="url(#pfe8687c3b5)">
     <use xlink:href="#C0_0_67f49a58f6" x="156.070673" y="237.394471" style="fill: #1f1f1f; fill-opacity: 0.9"/>
    </g>
    <g clip-path="url(#pfe8687c3b5)">
     <use xlink:href="#C0_0_67f49a58f6" x="111.825445" y="145.759567" style="fill: #b8b8b8; fill-opacity: 0.9"/>
    </g>
    <g clip-path="url(#pfe8687c3b5)">
     <use xlink:href="#C0_0_67f49a58f6" x="204.228353" y="132.049231" style="fill: #b8b8b8; fill-opacity: 0.9"/>
    </g>
    <g clip-path="url(#pfe8687c3b5)">
     <use xlink:href="#C0_0_67f49a58f6" x="64.358197" y="257.336779" style="fill: #1f1f1f; fill-opacity: 0.9"/>
    </g>
    <g clip-path="url(#pfe8687c3b5)">
     <use xlink:href="#C0_0_67f49a58f6" x="267.920769" y="234.901683" style="fill: #1f1f1f; fill-opacity: 0.9"/>
    </g>
    <g clip-path="url(#pfe8687c3b5)">
     <use xlink:href="#C0_0_67f49a58f6" x="286.217236" y="177.567548" style="fill: #b8b8b8; fill-opacity: 0.9"/>
    </g>
    <g clip-path="url(#pfe8687c3b5)">
     <use xlink:href="#C0_0_67f49a58f6" x="281.556815" y="246.7175" style="fill: #1f1f1f; fill-opacity: 0.9"/>
    </g>
    <g clip-path="url(#pfe8687c3b5)">
     <use xlink:href="#C0_0_67f49a58f6" x="282.995216" y="248.01375" style="fill: #1f1f1f; fill-opacity: 0.9"/>
    </g>
    <g clip-path="url(#pfe8687c3b5)">
     <use xlink:href="#C0_0_67f49a58f6" x="127.647861" y="273.539904" style="fill: #b8b8b8; fill-opacity: 0.9"/>
    </g>
    <g clip-path="url(#pfe8687c3b5)">
     <use xlink:href="#C0_0_67f49a58f6" x="251.695601" y="236.796202" style="fill: #1f1f1f; fill-opacity: 0.9"/>
    </g>
    <g clip-path="url(#pfe8687c3b5)">
     <use xlink:href="#C0_0_67f49a58f6" x="162.917464" y="206.832885" style="fill: #b8b8b8; fill-opacity: 0.9"/>
    </g>
    <g clip-path="url(#pfe8687c3b5)">
     <use xlink:href="#C0_0_67f49a58f6" x="86.336971" y="308.438942" style="fill: #b8b8b8; fill-opacity: 0.9"/>
    </g>
    <g clip-path="url(#pfe8687c3b5)">
     <use xlink:href="#C0_0_67f49a58f6" x="180.178281" y="195.615337" style="fill: #b8b8b8; fill-opacity: 0.9"/>
    </g>
    <g clip-path="url(#pfe8687c3b5)">
     <use xlink:href="#C0_0_67f49a58f6" x="254.975156" y="240.485529" style="fill: #b8b8b8; fill-opacity: 0.9"/>
    </g>
    <g clip-path="url(#pfe8687c3b5)">
     <use xlink:href="#C0_0_67f49a58f6" x="118.672236" y="272.941635" style="fill: #1f1f1f; fill-opacity: 0.9"/>
    </g>
    <g clip-path="url(#pfe8687c3b5)">
     <use xlink:href="#C0_0_67f49a58f6" x="212.916298" y="222.43774" style="fill: #1f1f1f; fill-opacity: 0.9"/>
    </g>
    <g clip-path="url(#pfe8687c3b5)">
     <use xlink:href="#C0_0_67f49a58f6" x="131.617849" y="226.775192" style="fill: #b8b8b8; fill-opacity: 0.9"/>
    </g>
    <g clip-path="url(#pfe8687c3b5)">
     <use xlink:href="#C0_0_67f49a58f6" x="101.411418" y="254.245721" style="fill: #b8b8b8; fill-opacity: 0.9"/>
    </g>
    <g clip-path="url(#pfe8687c3b5)">
     <use xlink:href="#C0_0_67f49a58f6" x="229.429147" y="186.890577" style="fill: #b8b8b8; fill-opacity: 0.9"/>
    </g>
    <g clip-path="url(#pfe8687c3b5)">
     <use xlink:href="#C0_0_67f49a58f6" x="89.904207" y="195.615337" style="fill: #b8b8b8; fill-opacity: 0.9"/>
    </g>
    <g clip-path="url(#pfe8687c3b5)">
     <use xlink:href="#C0_0_67f49a58f6" x="131.617849" y="118.338894" style="fill: #b8b8b8; fill-opacity: 0.9"/>
    </g>
    <g clip-path="url(#pfe8687c3b5)">
     <use xlink:href="#C0_0_67f49a58f6" x="86.682188" y="281.018269" style="fill: #b8b8b8; fill-opacity: 0.9"/>
    </g>
    <g clip-path="url(#pfe8687c3b5)">
     <use xlink:href="#C0_0_67f49a58f6" x="280.866382" y="147.005962" style="fill: #b8b8b8; fill-opacity: 0.9"/>
    </g>
    <g clip-path="url(#pfe8687c3b5)">
     <use xlink:href="#C0_0_67f49a58f6" x="116.140649" y="201.847308" style="fill: #b8b8b8; fill-opacity: 0.9"/>
    </g>
    <g clip-path="url(#pfe8687c3b5)">
     <use xlink:href="#C0_0_67f49a58f6" x="204.976322" y="213.114712" style="fill: #b8b8b8; fill-opacity: 0.9"/>
    </g>
    <g clip-path="url(#pfe8687c3b5)">
     <use xlink:href="#C0_0_67f49a58f6" x="141.341442" y="200.002644" style="fill: #b8b8b8; fill-opacity: 0.9"/>
    </g>
    <g clip-path="url(#pfe8687c3b5)">
     <use xlink:href="#C0_0_67f49a58f6" x="67.982969" y="189.383365" style="fill: #b8b8b8; fill-opacity: 0.9"/>
    </g>
    <g clip-path="url(#pfe8687c3b5)">
     <use xlink:href="#C0_0_67f49a58f6" x="89.55899" y="184.397788" style="fill: #b8b8b8; fill-opacity: 0.9"/>
    </g>
    <g clip-path="url(#pfe8687c3b5)">
     <use xlink:href="#C0_0_67f49a58f6" x="94.564627" y="137.034808" style="fill: #b8b8b8; fill-opacity: 0.9"/>
    </g>
    <g clip-path="url(#pfe8687c3b5)">
     <use xlink:href="#C0_0_67f49a58f6" x="67.580216" y="267.956058" style="fill: #b8b8b8; fill-opacity: 0.9"/>
    </g>
    <g clip-path="url(#pfe8687c3b5)">
     <use xlink:href="#C0_0_67f49a58f6" x="52.505769" y="314.022788" style="fill: #b8b8b8; fill-opacity: 0.9"/>
    </g>
   </g>
   <g id="patch_3">
    <path d="M 43.3 321.9 
L 43.3 10.8 
" style="fill: none; stroke: #404040; stroke-width: 0.7; stroke-linejoin: miter; stroke-linecap: square"/>
   </g>
   <g id="patch_4">
    <path d="M 43.3 321.9 
L 522 321.9 
" style="fill: none; stroke: #404040; stroke-width: 0.7; stroke-linejoin: miter; stroke-linecap: square"/>
   </g>
   <g id="text_15">
    <!-- 1 -->
    <g style="fill: #ffffff" transform="translate(254.095966 189.249514) scale(0.062 -0.062)">
     <use xlink:href="#DejaVuSans-31"/>
    </g>
   </g>
   <g id="text_16">
    <!-- 2 -->
    <g style="fill: #ffffff" transform="translate(270.954031 215.423793) scale(0.062 -0.062)">
     <use xlink:href="#DejaVuSans-32"/>
    </g>
   </g>
   <g id="text_17">
    <!-- 3 -->
    <g style="fill: #ffffff" transform="translate(284.992829 205.452639) scale(0.062 -0.062)">
     <defs>
      <path id="DejaVuSans-33" d="M 2597 2516 
Q 3050 2419 3304 2112 
Q 3559 1806 3559 1356 
Q 3559 666 3084 287 
Q 2609 -91 1734 -91 
Q 1441 -91 1130 -33 
Q 819 25 488 141 
L 488 750 
Q 750 597 1062 519 
Q 1375 441 1716 441 
Q 2309 441 2620 675 
Q 2931 909 2931 1356 
Q 2931 1769 2642 2001 
Q 2353 2234 1838 2234 
L 1294 2234 
L 1294 2753 
L 1863 2753 
Q 2328 2753 2575 2939 
Q 2822 3125 2822 3475 
Q 2822 3834 2567 4026 
Q 2313 4219 1838 4219 
Q 1578 4219 1281 4162 
Q 984 4106 628 3988 
L 628 4550 
Q 988 4650 1302 4700 
Q 1616 4750 1894 4750 
Q 2613 4750 3031 4423 
Q 3450 4097 3450 3541 
Q 3450 3153 3228 2886 
Q 3006 2619 2597 2516 
z
" transform="scale(0.015625)"/>
     </defs>
     <use xlink:href="#DejaVuSans-33"/>
    </g>
   </g>
   <g id="text_18">
    <!-- 4 -->
    <g style="fill: #ffffff" transform="translate(331.366892 199.868793) scale(0.062 -0.062)">
     <use xlink:href="#DejaVuSans-34"/>
    </g>
   </g>
   <g id="text_19">
    <!-- 5 -->
    <g style="fill: #ffffff" transform="translate(377.395738 183.017543) scale(0.062 -0.062)">
     <defs>
      <path id="DejaVuSans-35" d="M 691 4666 
L 3169 4666 
L 3169 4134 
L 1269 4134 
L 1269 2991 
Q 1406 3038 1543 3061 
Q 1681 3084 1819 3084 
Q 2600 3084 3056 2656 
Q 3513 2228 3513 1497 
Q 3513 744 3044 326 
Q 2575 -91 1722 -91 
Q 1428 -91 1123 -41 
Q 819 9 494 109 
L 494 744 
Q 775 591 1075 516 
Q 1375 441 1709 441 
Q 2250 441 2565 725 
Q 2881 1009 2881 1497 
Q 2881 1984 2565 2268 
Q 2250 2553 1709 2553 
Q 1456 2553 1204 2497 
Q 953 2441 691 2322 
L 691 4666 
z
" transform="scale(0.015625)"/>
     </defs>
     <use xlink:href="#DejaVuSans-35"/>
    </g>
   </g>
   <g id="text_20">
    <!-- 6 -->
    <g style="fill: #ffffff" transform="translate(276.017204 199.868793) scale(0.062 -0.062)">
     <use xlink:href="#DejaVuSans-36"/>
    </g>
   </g>
   <g id="text_21">
    <!-- 7 -->
    <g style="fill: #ffffff" transform="translate(136.492264 211.684611) scale(0.062 -0.062)">
     <defs>
      <path id="DejaVuSans-37" d="M 525 4666 
L 3525 4666 
L 3525 4397 
L 1831 0 
L 1172 0 
L 2766 4134 
L 525 4134 
L 525 4666 
z
" transform="scale(0.015625)"/>
     </defs>
     <use xlink:href="#DejaVuSans-37"/>
    </g>
   </g>
   <g id="text_22">
    <!-- 8 -->
    <g style="fill: #ffffff" transform="translate(296.154825 185.510332) scale(0.062 -0.062)">
     <use xlink:href="#DejaVuSans-38"/>
    </g>
   </g>
   <g id="text_23">
    <!-- 9 -->
    <g style="fill: #ffffff" transform="translate(267.386796 181.17288) scale(0.062 -0.062)">
     <defs>
      <path id="DejaVuSans-39" d="M 703 97 
L 703 672 
Q 941 559 1184 500 
Q 1428 441 1663 441 
Q 2288 441 2617 861 
Q 2947 1281 2994 2138 
Q 2813 1869 2534 1725 
Q 2256 1581 1919 1581 
Q 1219 1581 811 2004 
Q 403 2428 403 3163 
Q 403 3881 828 4315 
Q 1253 4750 1959 4750 
Q 2769 4750 3195 4129 
Q 3622 3509 3622 2328 
Q 3622 1225 3098 567 
Q 2575 -91 1691 -91 
Q 1453 -91 1209 -44 
Q 966 3 703 97 
z
M 1959 2075 
Q 2384 2075 2632 2365 
Q 2881 2656 2881 3163 
Q 2881 3666 2632 3958 
Q 2384 4250 1959 4250 
Q 1534 4250 1286 3958 
Q 1038 3666 1038 3163 
Q 1038 2656 1286 2365 
Q 1534 2075 1959 2075 
z
" transform="scale(0.015625)"/>
     </defs>
     <use xlink:href="#DejaVuSans-39"/>
    </g>
   </g>
   <g id="text_24">
    <!-- 10 -->
    <g style="fill: #ffffff" transform="translate(244.931584 178.630236) scale(0.062 -0.062)">
     <use xlink:href="#DejaVuSans-31"/>
     <use xlink:href="#DejaVuSans-30" transform="translate(63.623047 0)"/>
    </g>
   </g>
  </g>
 </g>
 <defs>
  <clipPath id="pfe8687c3b5">
   <rect x="43.3" y="10.8" width="478.7" height="311.1"/>
  </clipPath>
 </defs>
</svg>
